<?xml version="1.0" encoding="UTF-8"?>
<svg version="1.1" xmlns="http://www.w3.org/2000/svg" width="512" height="512">
<path d="M0 0 C4.38754438 2.15388542 7.52067915 4.77597188 10 9 C11.60838709 15.00810404 11.45399341 19.87974476 8.32421875 25.3046875 C6.2339926 27.98067025 3.96932715 29.38036701 1 31 C1.16081055 31.70866211 1.32162109 32.41732422 1.48730469 33.14746094 C2.38613989 38.14840878 2.2264522 43.18133647 2.25 48.25 C2.2809375 49.89162109 2.2809375 49.89162109 2.3125 51.56640625 C2.36327682 62.16606693 0.54904295 69.25535238 -6.79296875 77.046875 C-9.96828194 79.85688667 -13.08872245 81.39358244 -17 83 C-14.82257772 84.67494021 -12.6917507 86.17921471 -10.3125 87.5625 C0.37310058 94.7583728 6.58886759 106.29262978 9.5784359 118.58183479 C10.42411547 123.43280031 10.2854629 128.32945415 10.2746582 133.23999023 C10.2823246 135.04885208 10.2823246 135.04885208 10.29014587 136.89425659 C10.30161619 140.18151998 10.30412325 143.46862595 10.30158257 146.75590396 C10.30050774 149.50921003 10.30540919 152.26249321 10.310188 155.01579434 C10.32125635 161.5155114 10.32173551 168.01517066 10.31567383 174.51489258 C10.30963407 181.20076076 10.32195111 187.88641849 10.3432439 194.57225078 C10.36090487 200.33132969 10.36685424 206.09034187 10.36360615 211.84944683 C10.3618005 215.28084328 10.36435733 218.71208953 10.37832069 222.14346123 C10.39069009 225.97267645 10.38388986 229.80140746 10.37231445 233.63061523 C10.37995819 234.75453171 10.38760193 235.87844818 10.39547729 237.03642273 C10.33517566 246.0853913 9.10692671 253.52214646 2.75 260.3125 C1.65945313 261.51326172 1.65945313 261.51326172 0.546875 262.73828125 C-2 265 -2 265 -9 269 C7.335 269.495 7.335 269.495 24 270 C24.0928125 275.2903125 24.0928125 275.2903125 24.1875 280.6875 C24.21481201 281.79053467 24.24212402 282.89356934 24.27026367 284.0300293 C24.35029965 293.43898968 24.35029965 293.43898968 21 297 C15.44529313 300.6686531 10.51953946 300.26942093 4.07958984 300.0871582 C2.55519287 300.04401489 2.55519287 300.04401489 1 300 C1.23599915 300.91508331 1.47199829 301.83016663 1.71514893 302.77297974 C4.58706516 314.0204832 7.10387479 325.3322812 9.546875 336.6796875 C9.85580059 338.11180258 9.85580059 338.11180258 10.1709671 339.57284927 C11.25694357 344.60876502 12.33956466 349.64538842 13.41943359 354.68261719 C14.52911563 359.85544581 15.65092719 365.02556722 16.77537155 370.19520378 C17.64525027 374.20534633 18.50598615 378.21741233 19.36429596 382.23004532 C19.77390374 384.13721494 20.18692135 386.04365578 20.60353851 387.94930649 C21.185191 390.61380073 21.7537287 393.28079074 22.31933594 395.94873047 C22.57640572 397.10541985 22.57640572 397.10541985 22.83866882 398.28547668 C23.97099239 403.71960112 24.89939867 409.4760448 24 415 C21.94527552 417.73988621 21.03204376 417.99242602 17.5625 418.8125 C12.33797217 419.08747515 12.33797217 419.08747515 10 417 C7.40908009 410.89874458 5.91293394 404.77282113 4.5480957 398.30126953 C4.2109404 396.73888802 4.2109404 396.73888802 3.86697388 395.14494324 C3.13065521 391.72547399 2.4030842 388.30420967 1.67578125 384.8828125 C1.16487912 382.49996913 0.65349403 380.11722927 0.14164734 377.73458862 C-0.92696023 372.75418767 -1.99156361 367.77295434 -3.05297852 362.79101562 C-4.41599037 356.39378195 -5.78616539 349.99811032 -7.15895367 343.60296822 C-8.21334899 338.68961169 -9.26542053 333.7757602 -10.31662941 328.86172104 C-10.82142194 326.50203025 -11.32660826 324.14242367 -11.83218956 321.78290176 C-12.5357116 318.49651172 -13.23644675 315.2095407 -13.9362793 311.92236328 C-14.14663315 310.94159317 -14.356987 309.96082306 -14.57371521 308.95033264 C-14.76290527 308.05883011 -14.95209534 307.16732758 -15.14701843 306.24880981 C-15.31273189 305.47198915 -15.47844534 304.6951685 -15.64918041 303.89480782 C-16 302 -16 302 -16 300 C-31.18 300 -46.36 300 -62 300 C-62.33 302.97 -62.66 305.94 -63 309 C-63.28067091 310.64368855 -63.58655841 312.28362098 -63.93527222 313.91423035 C-64.11742279 314.77617508 -64.29957336 315.63811981 -64.48724365 316.52618408 C-64.78335541 317.89417145 -64.78335541 317.89417145 -65.08544922 319.28979492 C-65.29535492 320.2763356 -65.50526062 321.26287628 -65.7215271 322.27931213 C-66.41122779 325.51405367 -67.10756794 328.74731854 -67.8046875 331.98046875 C-68.28947281 334.24006358 -68.77409966 336.49969242 -69.25857544 338.75935364 C-70.27259073 343.48307439 -71.29020746 348.20600274 -72.31005859 352.9284668 C-73.61547416 358.97581917 -74.90927881 365.02559074 -76.20008659 371.07607555 C-77.19649081 375.73815004 -78.20033863 380.39859842 -79.20630264 385.05861855 C-79.68652822 387.28875353 -80.16413868 389.51945333 -80.63906479 391.75072289 C-81.30354571 394.86834279 -81.97834585 397.98355756 -82.65576172 401.09838867 C-82.84912109 402.01645294 -83.04248047 402.93451721 -83.24169922 403.88040161 C-85.73272104 415.20181324 -85.73272104 415.20181324 -89.8125 418.4375 C-92.90633896 419.23305859 -94.94094704 418.89222378 -98 418 C-100.375 416.375 -100.375 416.375 -102 414 C-102.44916669 408.03505551 -101.26387779 402.59850115 -99.99633789 396.8137207 C-99.78336563 395.81450592 -99.57039337 394.81529114 -99.35096741 393.78579712 C-98.64834097 390.49762341 -97.93559192 387.21173373 -97.22265625 383.92578125 C-96.73120147 381.63621274 -96.24036052 379.34651239 -95.75010681 377.0566864 C-94.45974736 371.03827904 -93.16069247 365.02178023 -91.85992432 359.00561523 C-90.53711632 352.87928793 -89.22321107 346.75105219 -87.90820312 340.62304688 C-85.98743654 331.68047254 -84.06442651 322.73838658 -82.13305664 313.7980957 C-81.93093567 312.86034805 -81.7288147 311.9226004 -81.52056885 310.95643616 C-81.24083977 309.66337555 -81.24083977 309.66337555 -80.95545959 308.3441925 C-80.79414582 307.59741399 -80.63283205 306.85063547 -80.46662998 306.0812273 C-80.01010007 304.04504758 -79.51506991 302.02208711 -79 300 C-79.9178125 300.04640625 -80.835625 300.0928125 -81.78125 300.140625 C-83.0084375 300.17671875 -84.235625 300.2128125 -85.5 300.25 C-86.7065625 300.29640625 -87.913125 300.3428125 -89.15625 300.390625 C-92.6709273 300.03344235 -94.22865124 299.55803599 -97.24023438 297.97558594 C-97.94805054 297.60786072 -98.6558667 297.2401355 -99.38513184 296.86126709 C-99.91803833 296.57704895 -100.45094482 296.29283081 -101 296 C-101.07361881 296.56230159 -101.14723763 297.12460318 -101.22308731 297.70394421 C-103.01663756 311.39434735 -104.82849022 325.08222084 -106.66002274 338.76759624 C-107.54519336 345.385876 -108.4242767 352.00481964 -109.28955078 358.62573242 C-110.1246881 365.01431193 -110.97568669 371.40059461 -111.83776093 377.78559303 C-112.16398589 380.22289674 -112.4844719 382.66097564 -112.79914093 385.0997982 C-113.24060846 388.51366304 -113.70233705 391.92421043 -114.16894531 395.3347168 C-114.29482529 396.34532166 -114.42070526 397.35592651 -114.55039978 398.39715576 C-115.28893898 403.62554571 -115.93969858 407.26538926 -120 411 C-122.41015625 411.63110352 -122.41015625 411.63110352 -125.0625 411.62890625 C-126.50496094 411.63180664 -126.50496094 411.63180664 -127.9765625 411.63476562 C-128.97429687 411.61091797 -129.97203125 411.58707031 -131 411.5625 C-131.99773437 411.57345703 -132.99546875 411.58441406 -134.0234375 411.59570312 C-141.32144468 411.52233174 -141.32144468 411.52233174 -144.11888885 409.36894226 C-146.57925978 406.27051999 -146.50279358 404.49479983 -146.50793457 400.56347656 C-146.51729451 399.59712296 -146.51729451 399.59712296 -146.52684355 398.61124706 C-146.5427889 396.4539999 -146.53016421 394.29788039 -146.51757812 392.140625 C-146.52299904 390.59301596 -146.53012154 389.04541209 -146.53881836 387.49781799 C-146.55707064 383.29270938 -146.54997326 379.08799292 -146.53730202 374.88287735 C-146.52716967 370.47488605 -146.53656969 366.06692818 -146.54284668 361.65893555 C-146.55012852 354.2476602 -146.54052774 346.83654413 -146.52148438 339.42529297 C-146.49977875 330.87976543 -146.50671868 322.33462059 -146.52879 313.78910255 C-146.54700564 306.44024211 -146.54947041 299.09149623 -146.53903532 291.74262047 C-146.53282584 287.35923381 -146.5318928 282.97602624 -146.54518127 278.59265137 C-146.55682681 274.46223734 -146.54855716 270.33231018 -146.52560425 266.20194817 C-146.52036044 264.69441469 -146.52175576 263.18683953 -146.53065491 261.6793232 C-146.59574048 249.52269681 -145.13598627 238.62750317 -137.0703125 229.04296875 C-132.74975239 224.77947264 -127.7911471 220.93038237 -122 219 C-151.205 218.505 -151.205 218.505 -181 218 C-182.485 222.455 -182.485 222.455 -184 227 C-189.48978096 236.55122524 -197.14331544 243.50093777 -206.25 249.5 C-212.02040543 253.42172189 -215.59279133 258.11861797 -217 265 C-217.09969442 266.89213218 -217.14607276 268.78735005 -217.15821838 270.68206787 C-217.1680072 271.84030563 -217.17779602 272.9985434 -217.18788147 274.19187927 C-217.19363693 275.45854935 -217.1993924 276.72521942 -217.20532227 278.03027344 C-217.21490478 279.380603 -217.22491508 280.73092958 -217.23532104 282.08125305 C-217.26233572 285.74410345 -217.28336387 289.40696669 -217.30332303 293.06986141 C-217.3252038 296.89891329 -217.35258226 300.72792574 -217.37937927 304.5569458 C-217.42927788 311.80643952 -217.47422721 319.05595515 -217.51740164 326.30549169 C-217.56679822 334.55938327 -217.62170737 342.81323529 -217.67708123 351.0670886 C-217.7908578 368.04468916 -217.89770625 385.02232645 -218 402 C-217.35973877 401.97905273 -216.71947754 401.95810547 -216.05981445 401.93652344 C-213.14420425 401.85310716 -210.22884548 401.80126031 -207.3125 401.75 C-206.30509766 401.71648437 -205.29769531 401.68296875 -204.25976562 401.6484375 C-196.78522768 401.54976373 -196.78522768 401.54976373 -192.859375 403.80078125 C-190.24914966 406.88808559 -189.92957825 408.98596026 -190 413 C-192.08625339 416.42741629 -193.1744311 417.72481037 -197 419 C-199.34965872 419.10521167 -201.70221892 419.14871125 -204.05419922 419.16113281 C-204.76837006 419.16609772 -205.48254089 419.17106262 -206.21835327 419.17617798 C-208.58047449 419.19078048 -210.94252856 419.1975982 -213.3046875 419.203125 C-214.94751996 419.20887779 -216.59035239 419.21463551 -218.23318481 419.22039795 C-221.67808342 419.23090233 -225.12295873 419.23674875 -228.56787109 419.24023438 C-232.97857384 419.24571957 -237.38896795 419.26975033 -241.7995739 419.29820633 C-245.19337866 419.31684414 -248.58710923 419.3220389 -251.98096085 419.32357025 C-253.60684014 419.32659446 -255.2327182 419.33461522 -256.85854721 419.34775543 C-259.13494 419.3648411 -261.41058054 419.36292996 -263.68701172 419.35644531 C-264.9814621 419.36009094 -266.27591248 419.36373657 -267.60958862 419.36749268 C-271.23528842 418.97449667 -273.11913021 418.19300372 -276 416 C-277.52846661 412.94306678 -277.23242445 410.37015453 -277 407 C-275.23984869 403.8149643 -274.50109084 403.16703028 -271 402 C-269.44578271 401.91893314 -267.88832973 401.89243102 -266.33203125 401.90234375 C-265.43935547 401.90556641 -264.54667969 401.90878906 -263.62695312 401.91210938 C-262.69818359 401.92048828 -261.76941406 401.92886719 -260.8125 401.9375 C-259.87212891 401.94201172 -258.93175781 401.94652344 -257.96289062 401.95117188 C-255.64186288 401.96295374 -253.32096356 401.97940442 -251 402 C-251.03721542 384.03195494 -251.09714771 366.06413476 -251.18390274 348.09626102 C-251.22366145 339.75289157 -251.25606999 331.409616 -251.27099609 323.06616211 C-251.28402909 315.79145936 -251.31103561 308.51696346 -251.35461307 301.24237722 C-251.37719106 297.39279184 -251.3929129 293.54346125 -251.39188385 289.69380379 C-251.39113505 286.06488977 -251.4091729 282.43653817 -251.44116783 278.80776978 C-251.45365033 276.85218711 -251.44661995 274.89650981 -251.43885803 272.94090271 C-251.52930837 265.25684716 -252.1172293 258.11892765 -257.6145668 252.2872324 C-259.33894559 250.73902705 -261.12808408 249.36609249 -263 248 C-272.8513745 240.76005019 -281.70126515 232.77291706 -286 221 C-286 220.01 -286 219.02 -286 218 C-304.48 218.33 -322.96 218.66 -342 219 C-338.04 220.98 -338.04 220.98 -334 223 C-325.06742628 229.22169314 -320.14956151 237.41596384 -318 248 C-317.57471326 253.2245303 -317.57855004 258.43053507 -317.59594727 263.66748047 C-317.59023523 265.2289529 -317.58326777 266.79042116 -317.57514954 268.35188293 C-317.55730581 272.56429587 -317.55836849 276.77649953 -317.56409192 280.98893881 C-317.56719312 284.51078881 -317.56108179 288.03259914 -317.55505317 291.55444348 C-317.54104174 299.85859523 -317.54254415 308.16264399 -317.55395508 316.46679688 C-317.56546445 325.03190905 -317.55130584 333.59670913 -317.5245586 342.16178024 C-317.50242348 349.52591241 -317.49575834 356.88994642 -317.50163502 364.2541095 C-317.50500725 368.64834276 -317.50257046 373.04237542 -317.48538399 377.43658066 C-317.46994911 381.56210619 -317.47383141 385.68716664 -317.49268913 389.81267357 C-317.49638303 391.32680483 -317.49324322 392.84097034 -317.48280334 394.35507011 C-317.46964679 396.4205928 -317.48108975 398.48456299 -317.49879456 400.55001831 C-317.49900384 401.70586363 -317.49921312 402.86170895 -317.49942875 404.05257988 C-318.10783863 407.63496607 -319.15389006 408.81071343 -322 411 C-325.62998218 411.80343508 -329.29089697 411.60323304 -333 411.5625 C-333.99773437 411.58634766 -334.99546875 411.61019531 -336.0234375 411.63476562 C-337.46589844 411.63186523 -337.46589844 411.63186523 -338.9375 411.62890625 C-339.81277344 411.62963135 -340.68804687 411.63035645 -341.58984375 411.63110352 C-345.20751075 410.68381126 -346.01274609 409.1702799 -348 406 C-348.95075359 402.45830005 -349.38241291 398.87808659 -349.83105469 395.24291992 C-350.05138618 393.61785522 -350.05138618 393.61785522 -350.27616882 391.95996094 C-350.75691369 388.38533691 -351.21446927 384.80814768 -351.671875 381.23046875 C-352.00103727 378.74877813 -352.3316435 376.26727865 -352.66363525 373.78596497 C-353.44409066 367.92632719 -354.20998557 362.06490359 -354.96881509 356.20243675 C-355.91874548 348.87061188 -356.89131037 341.54182034 -357.86328125 334.21289062 C-359.59367377 321.14427695 -361.30395965 308.0731139 -363 295 C-363.763125 295.639375 -364.52625 296.27875 -365.3125 296.9375 C-369.62917451 300.25029672 -372.88039917 300.111189 -378.1875 300.0625 C-379.45980469 300.05347656 -380.73210937 300.04445313 -382.04296875 300.03515625 C-383.50669922 300.01775391 -383.50669922 300.01775391 -385 300 C-384.72660294 301.26676071 -384.45320587 302.53352142 -384.17152405 303.83866882 C-381.59611716 315.77182282 -379.02110521 327.70506198 -376.44648075 339.63838482 C-375.122804 345.77353323 -373.79898772 351.90865147 -372.47485352 358.04370117 C-371.19720126 363.96341303 -369.91991427 369.88320359 -368.64288139 375.80304909 C-368.15540027 378.06251652 -367.66778714 380.32195548 -367.18004036 382.58136559 C-366.49736384 385.74386589 -365.81515507 388.90646676 -365.13305664 392.0690918 C-364.93093567 393.00489075 -364.7288147 393.9406897 -364.52056885 394.90484619 C-361.52668951 408.79358461 -361.52668951 408.79358461 -362 414 C-364.05497771 417.00342896 -365.47633714 417.83287356 -368.9375 418.9375 C-372.81519117 419.01663655 -374.13188477 418.63556535 -377 416 C-379.70964207 409.86199172 -380.98236107 403.12082203 -382.36010742 396.58666992 C-382.57512405 395.58716309 -382.79014069 394.58765625 -383.01167297 393.55786133 C-383.71470857 390.28313267 -384.41030605 387.00687694 -385.10546875 383.73046875 C-385.59409413 381.44355791 -386.08305706 379.15671917 -386.57234192 376.86994934 C-387.59342551 372.09213468 -388.61090479 367.31357108 -389.62573242 362.53442383 C-390.9274799 356.40517996 -392.23750086 350.27773998 -393.55010509 344.1508131 C-394.55941271 339.43579811 -395.56473794 334.71994109 -396.56881142 330.00380898 C-397.05050752 327.74329572 -397.53336047 325.48302866 -398.01738548 323.22301292 C-398.69161279 320.07162852 -399.36056551 316.91917034 -400.02807617 313.76635742 C-400.22907928 312.83175186 -400.4300824 311.8971463 -400.63717651 310.93421936 C-400.81795242 310.07506927 -400.99872833 309.21591919 -401.1849823 308.33073425 C-401.34332141 307.58655337 -401.50166052 306.84237249 -401.66479778 306.07564068 C-402 304 -402 304 -402 300 C-417.18 300 -432.36 300 -448 300 C-448.62777344 303.18011719 -449.25554687 306.36023438 -449.90234375 309.63671875 C-453.36402999 327.00028999 -456.97905467 344.33253927 -460.63482094 361.65616035 C-461.71681707 366.78458319 -462.79271235 371.91413258 -463.85522461 377.04663086 C-464.89816529 382.08385058 -465.95569029 387.1177989 -467.02372551 392.14975548 C-467.42480093 394.05166089 -467.82068602 395.95466879 -468.21118355 397.85877419 C-468.75383091 400.49993232 -469.3151256 403.13646313 -469.88110352 405.77270508 C-470.03653122 406.55126358 -470.19195892 407.32982208 -470.35209656 408.13197327 C-471.32249911 412.53923108 -472.35012351 415.25188805 -476 418 C-479.68451718 419.17590974 -481.28254275 419.33481338 -484.8125 417.6875 C-487 416 -487 416 -488 414 C-488.32114814 407.2047789 -487.45339459 401.17573089 -485.99633789 394.55493164 C-485.78336563 393.55221222 -485.57039337 392.5494928 -485.35096741 391.51638794 C-484.65038033 388.22901176 -483.93674099 384.94462449 -483.22265625 381.66015625 C-482.73108145 379.36868059 -482.24024259 377.07704695 -481.75010681 374.78526306 C-480.72415398 369.99714215 -479.6922462 365.21035966 -478.65551758 360.42456055 C-477.32458346 354.2803111 -476.00410164 348.13387726 -474.68746281 341.98655033 C-473.43197589 336.12697374 -472.17123361 330.26853174 -470.91015625 324.41015625 C-470.66921801 323.28861712 -470.42827976 322.16707798 -470.18004036 321.01155281 C-469.50062751 317.85349881 -468.81747041 314.6962801 -468.13305664 311.53930664 C-467.93093567 310.59751053 -467.7288147 309.65571442 -467.52056885 308.68537903 C-467.33408279 307.82897827 -467.14759674 306.97257751 -466.95545959 306.09022522 C-466.79414582 305.34420075 -466.63283205 304.59817629 -466.46662998 303.82954502 C-466 302 -466 302 -465 300 C-465.88042969 300.02320313 -466.76085937 300.04640625 -467.66796875 300.0703125 C-468.82941406 300.08835937 -469.99085938 300.10640625 -471.1875 300.125 C-472.33605469 300.14820313 -473.48460937 300.17140625 -474.66796875 300.1953125 C-479.67310897 299.90192796 -481.99170915 298.87150174 -485.79296875 295.5859375 C-489.24346438 291.14283354 -488.53543166 285.98246207 -488.3125 280.625 C-488.209375 277.11875 -488.10625 273.6125 -488 270 C-471.665 269.505 -471.665 269.505 -455 269 C-457.64 267.35 -460.28 265.7 -463 264 C-465.42578125 261.859375 -465.42578125 261.859375 -467.3125 259.75 C-468.26576172 258.72132813 -468.26576172 258.72132813 -469.23828125 257.671875 C-474.15626754 250.21311087 -474.43917725 242.41812876 -474.40405273 233.70996094 C-474.41091599 232.51033218 -474.41777924 231.31070343 -474.42485046 230.07472229 C-474.43993883 226.8078439 -474.44163304 223.54132649 -474.43590808 220.27442837 C-474.43279906 217.53386579 -474.43892797 214.79335384 -474.44494683 212.05279851 C-474.4589574 205.57828699 -474.4574614 199.1039075 -474.44604492 192.62939453 C-474.43458273 185.98270919 -474.44861497 179.33642825 -474.4754414 172.68979621 C-474.49770744 166.9552478 -474.50421096 161.22082531 -474.49836498 155.48623681 C-474.49501818 152.07369057 -474.49725582 148.66140303 -474.51461601 145.24889374 C-474.52960705 141.43483539 -474.51878714 137.62164953 -474.50170898 133.80761719 C-474.51137695 132.69965286 -474.52104492 131.59168854 -474.53100586 130.45014954 C-474.38641526 114.91454443 -468.66965916 102.40472966 -458.2265625 91.17578125 C-455.6350449 88.64336843 -453.14680051 86.77511824 -450 85 C-450.55945313 84.72414063 -451.11890625 84.44828125 -451.6953125 84.1640625 C-460.30935995 79.81323853 -467.45337901 75.64006086 -471.04907227 66.26464844 C-472.67918049 60.66829228 -472.41040359 55.04260946 -472.4375 49.25 C-472.47037109 48.02539062 -472.50324219 46.80078125 -472.53710938 45.5390625 C-472.59572042 35.58584198 -470.33759481 28.704974 -463.875 21.125 C-458.58797808 16.26323854 -451.62288194 13.89571566 -444.5 13.5 C-436.82295214 13.91274451 -429.10398454 16.85644253 -423.5 22.1640625 C-414.49614952 33.18440032 -415.11718931 47.40627172 -416.23828125 60.859375 C-417.61154306 68.68280594 -422.11795182 74.8364317 -428.375 79.5625 C-429.57291999 80.39027617 -430.77758558 81.20884346 -432 82 C-431.19175781 82.30292969 -430.38351562 82.60585937 -429.55078125 82.91796875 C-418.93673111 87.07908612 -418.93673111 87.07908612 -415 92 C-414.36433105 92.76658936 -413.72866211 93.53317871 -413.07373047 94.32299805 C-411.06900742 96.91091754 -409.43875765 99.48981618 -407.8203125 102.33203125 C-407.22798828 103.36714844 -406.63566406 104.40226562 -406.02539062 105.46875 C-405.39826172 106.5721875 -404.77113281 107.675625 -404.125 108.8125 C-403.12500202 110.54897634 -402.12500148 112.28545121 -401.12481689 114.02182007 C-398.08085334 119.31385011 -395.09199021 124.63192894 -392.1484375 129.98046875 C-391.53468262 131.07705811 -390.92092773 132.17364746 -390.28857422 133.3034668 C-389.11825514 135.3950567 -387.96544226 137.49656276 -386.83251953 139.60864258 C-386.29997559 140.55247803 -385.76743164 141.49631348 -385.21875 142.46875 C-384.76435547 143.29826172 -384.30996094 144.12777344 -383.84179688 144.98242188 C-379.57564525 149.65573537 -371.50894578 149.66349418 -365.48046875 150.5859375 C-363.63469697 150.87977741 -361.78899598 151.17406222 -359.94335938 151.46875 C-357.0677165 151.92332739 -354.19165586 152.37436015 -351.31420898 152.81738281 C-323.72597718 157.08465283 -323.72597718 157.08465283 -314 168 C-309.25947003 174.89017363 -308 179.56618106 -308 188 C-257.84 188 -207.68 188 -156 188 C-156 185.69 -156 183.38 -156 181 C-154.00378881 172.4110387 -148.92785621 165.76553535 -141.99609375 160.46875 C-131.9646526 154.58268077 -118.51847864 153.70481569 -107.20553589 152.2258606 C-104.49314158 151.86661955 -101.78520492 151.4782258 -99.07702637 151.08862305 C-97.09853256 150.81743884 -95.11408358 150.59090211 -93.12988281 150.36523438 C-86.55827423 149.54190465 -86.55827423 149.54190465 -81.02539062 146.2331543 C-79.42337735 143.89968443 -78.21388599 141.55623429 -77 139 C-75.93195285 137.11423708 -74.85602783 135.2329204 -73.7734375 133.35546875 C-72.63809906 131.30087294 -71.50538052 129.24482768 -70.375 127.1875 C-65.81932423 118.98764871 -61.2222766 110.81872878 -56.4375 102.75 C-55.72376221 101.5283313 -55.72376221 101.5283313 -54.99560547 100.28198242 C-50.11383341 92.1217059 -44.13713958 86.22487279 -35 83 C-35.87011719 82.58041016 -35.87011719 82.58041016 -36.7578125 82.15234375 C-45.29490234 77.77109798 -49.71686558 72.78049002 -53.1730957 63.84692383 C-54.61173157 58.89388784 -54.53780118 54.05933146 -54.4375 48.9375 C-54.44458984 47.91333984 -54.45167969 46.88917969 -54.45898438 45.83398438 C-54.36981068 35.09884337 -52.0282067 27.97558467 -44.51953125 20.17578125 C-37.45644682 14.07634245 -30.0441251 13.38101045 -21 14 C-20.938125 13.13375 -20.87625 12.2675 -20.8125 11.375 C-19.68959853 6.71064004 -17.27137971 3.42384997 -13.16796875 0.8515625 C-8.92669013 -0.81438118 -4.46793891 -0.52525842 0 0 Z M-72 204 C-72.75290636 205.23584629 -73.4767183 206.48945511 -74.1875 207.75 C-76.63152115 211.78763728 -78.96009234 213.65121648 -83 216 C-83 216.33 -83 216.66 -83 217 C-78.71 217 -74.42 217 -70 217 C-70.33 212.71 -70.66 208.42 -71 204 C-71.33 204 -71.66 204 -72 204 Z M-393 210 C-393.33 212.31 -393.66 214.62 -394 217 C-390.7 217 -387.4 217 -384 217 C-386.96283313 214.61327331 -389.94270509 212.2646629 -393 210 Z " fill="#5D5260" transform="translate(488,93)"/>
<path d="M0 0 C1.05556595 -0.00571014 2.1111319 -0.01142029 3.19868469 -0.01730347 C4.92790665 -0.01898026 4.92790665 -0.01898026 6.69206238 -0.02069092 C7.91035233 -0.02565582 9.12864227 -0.03062073 10.3838501 -0.03573608 C13.72283575 -0.04783329 17.06175887 -0.05529984 20.40075898 -0.05974674 C22.48867896 -0.06268171 24.5765935 -0.06678732 26.66451073 -0.07125092 C33.20255724 -0.08491882 39.74059125 -0.09458896 46.27865106 -0.09845281 C53.81585744 -0.10293212 61.35288234 -0.12047693 68.89003354 -0.1494534 C74.72287547 -0.1710963 80.55566644 -0.18115847 86.38854808 -0.18249393 C89.86913741 -0.18354008 93.349556 -0.1894073 96.83010292 -0.20731354 C100.71513807 -0.22691263 104.59994779 -0.22249484 108.48503113 -0.21600342 C109.63177307 -0.2252182 110.77851501 -0.23443298 111.96000671 -0.243927 C118.85604238 -0.20783287 124.35158507 0.13314402 129.74357605 4.85919189 C130.44353699 5.74091064 130.44353699 5.74091064 131.15763855 6.64044189 C131.88080261 7.52216064 131.88080261 7.52216064 132.61857605 8.42169189 C135.44863365 12.60030043 134.91004784 17.1362205 134.8802948 21.96466064 C134.87817238 23.25676201 134.87817238 23.25676201 134.87600708 24.57496643 C134.87040995 27.32599359 134.85785801 30.07693934 134.84513855 32.82794189 C134.84012318 34.69317509 134.83556034 36.55840957 134.83146667 38.42364502 C134.82044147 42.99594201 134.80317882 47.56817815 134.78263855 52.14044189 C135.35855775 52.13583293 135.93447695 52.13122396 136.52784824 52.12647533 C150.55849443 52.01592533 164.58907511 51.93325118 178.62006474 51.88138103 C185.4054538 51.85562846 192.19055166 51.82053517 198.97575378 51.76324463 C205.52446841 51.70797734 212.07299421 51.67901507 218.62193108 51.66605568 C221.11979876 51.65682082 223.61764999 51.63878726 226.11538887 51.61179161 C229.61559369 51.57546756 233.1145508 51.57049824 236.61491394 51.57281494 C238.16211372 51.54585037 238.16211372 51.54585037 239.74057007 51.51834106 C245.26546552 51.55788033 249.12026931 52.03330619 253.4190197 55.6803093 C257.76644237 60.33543236 258.22414697 65.12905712 258.18669128 71.237854 C258.19698616 72.42199135 258.19698616 72.42199135 258.20748901 73.63005066 C258.22571277 76.22614798 258.22192593 78.82163841 258.2162323 81.41778564 C258.22079626 83.23090307 258.22610247 85.04401876 258.2321167 86.85713196 C258.24103913 90.65240518 258.23863461 94.44746788 258.22868347 98.24273682 C258.2171954 103.09609169 258.23740708 107.94871881 258.26660061 112.80197811 C258.28498438 116.54503462 258.28466581 120.28791743 258.27896309 124.03100777 C258.27881014 125.81990136 258.28483276 127.60880692 258.29725456 129.39765739 C258.31220414 131.90344205 258.30145937 134.40789117 258.28434753 136.91363525 C258.2940155 137.64580261 258.30368347 138.37796997 258.31364441 139.13232422 C258.23509701 144.65079159 256.81423342 147.69070898 253.78263855 152.14044189 C249.48158715 155.92946336 245.47825282 156.80573027 239.95451355 157.55059814 C237.41078253 157.98584334 237.41078253 157.98584334 235.78263855 161.14044189 C235.41514466 163.75333683 235.41514466 163.75333683 235.36857605 166.68341064 C235.31056824 168.29312744 235.31056824 168.29312744 235.25138855 169.93536377 C235.22045105 171.05491455 235.18951355 172.17446533 235.15763855 173.32794189 C235.09963074 175.02467041 235.09963074 175.02467041 235.04045105 176.75567627 C234.94611322 179.55043439 234.86052203 182.34518468 234.78263855 185.14044189 C232.46232605 186.24078369 232.46232605 186.24078369 229.78263855 187.14044189 C227.45713623 185.84182579 225.776356 184.65714563 223.78263855 182.95294189 C223.220849 182.4967749 222.65905945 182.04060791 222.08024597 181.57061768 C220.29719365 180.11331292 218.53846364 178.6303946 216.78263855 177.14044189 C215.65389206 176.19363682 214.5249887 175.24701872 213.3959198 174.30059814 C211.30105521 172.53831465 209.22069132 170.76260653 207.1459198 168.97637939 C206.61556625 168.54108414 206.08521271 168.10578888 205.53878784 167.65730286 C203.78263855 166.14044189 203.78263855 166.14044189 201.86791992 164.14494324 C194.15973356 156.78570516 186.67755227 157.05920004 176.68107605 157.24591064 C175.03301056 157.24600946 173.38494055 157.2421389 171.7368927 157.23451233 C167.42234805 157.22313127 163.10942313 157.25655719 158.79515076 157.3024292 C151.8855458 157.36926591 144.97578521 157.37147736 138.06592178 157.36574745 C135.66602953 157.37081053 133.26714103 157.39762366 130.8674469 157.42759705 C114.68090494 157.54683536 114.68090494 157.54683536 109.28248596 152.82957458 C103.85609749 146.902777 103.49199115 140.61591176 103.58732605 133.02325439 C103.59015594 132.16609833 103.59298584 131.30894226 103.59590149 130.42581177 C103.60703856 127.70554258 103.63213095 124.98561049 103.65763855 122.26544189 C103.66767673 120.41388417 103.67680111 118.56232125 103.6849823 116.71075439 C103.70695667 112.18718829 103.74144155 107.66387212 103.78263855 103.14044189 C96.39270849 103.08550368 89.00402702 103.07430712 81.61397743 103.11709595 C78.1813007 103.13563659 74.74992858 103.1397927 71.31730652 103.10968018 C67.35987135 103.07562225 63.40415948 103.10663539 59.44670105 103.14044189 C58.2296347 103.12102539 57.01256836 103.10160889 55.75862122 103.081604 C46.72100307 103.23282052 42.17772005 105.89634039 35.78263855 112.14044189 C34.79392761 112.94352783 33.80521667 113.74661377 32.7865448 114.57403564 C31.98088074 115.23532471 31.17521667 115.89661377 30.34513855 116.57794189 C29.43763855 117.32173096 28.53013855 118.06552002 27.59513855 118.83184814 C25.65725536 120.42252726 23.71977935 122.01370252 21.78263855 123.60528564 C20.81326355 124.40063721 19.84388855 125.19598877 18.84513855 126.01544189 C17.53222839 127.09438721 17.53222839 127.09438721 16.1927948 128.19512939 C15.39744324 128.83708252 14.60209167 129.47903564 13.78263855 130.14044189 C12.71916199 131.01829346 12.71916199 131.01829346 11.63420105 131.91387939 C9.78263855 133.14044189 9.78263855 133.14044189 7.09513855 132.89044189 C4.78263855 132.14044189 4.78263855 132.14044189 3.78263855 131.14044189 C3.64920374 129.39621815 3.57919496 127.64705464 3.5365448 125.89825439 C3.50367371 124.83219971 3.47080261 123.76614502 3.43693542 122.66778564 C3.3759509 120.40746559 3.31863315 118.14704351 3.26506042 115.88653564 C3.23090027 114.81790283 3.19674011 113.74927002 3.1615448 112.64825439 C3.13648865 111.66486084 3.1114325 110.68146729 3.08561707 109.66827393 C2.94649605 106.89684327 2.94649605 106.89684327 0.78263855 104.14044189 C-1.92655708 103.30181354 -1.92655708 103.30181354 -5.02986145 102.76544189 C-10.15634147 101.58193634 -13.0387582 100.54947222 -16.21736145 96.14044189 C-18.94474405 91.54041391 -19.65591741 87.77476179 -19.62141418 82.5178833 C-19.62827744 81.77883255 -19.63514069 81.0397818 -19.64221191 80.27833557 C-19.66042573 77.84935981 -19.65664982 75.42103342 -19.6509552 72.99200439 C-19.65552015 71.29338371 -19.66082666 69.59476486 -19.6668396 67.89614868 C-19.67576046 64.34045905 -19.67335995 60.78499412 -19.66340637 57.22930908 C-19.65192759 52.68767234 -19.67211628 48.14681439 -19.70132351 43.60527992 C-19.71973103 40.09808477 -19.71938386 36.5910746 -19.71368599 33.08384323 C-19.71353328 31.41021 -19.71953585 29.73656383 -19.73197746 28.06297684 C-19.83645629 11.70329033 -19.83645629 11.70329033 -15.21736145 5.14044189 C-10.19997656 1.06381668 -6.32272351 0.02052402 0 0 Z " fill="#ECBC83" transform="translate(134.2173614501953,-0.14044189453125)"/>
<path d="M0 0 C1.81657356 -0.00065712 1.81657356 -0.00065712 3.66984558 -0.00132751 C6.95437123 0.00039055 10.23850122 0.01531852 13.52294898 0.03639436 C16.96887948 0.05529193 20.41481974 0.05692181 23.86079407 0.06047058 C30.36995596 0.06975298 36.87896466 0.0943145 43.38805944 0.12451905 C50.80532219 0.15818241 58.2225927 0.17457891 65.63991296 0.18960536 C80.88283308 0.22086803 96.1256008 0.27355345 111.3684082 0.34057617 C111.44333857 4.30573726 111.4973727 8.27061631 111.53320312 12.23632812 C111.55546278 14.23802193 111.59360967 16.23951892 111.63208008 18.2409668 C111.70719803 28.18157606 111.13918014 36.15361524 104.1184082 43.65307617 C103.39137695 44.45358398 102.6643457 45.2540918 101.9152832 46.07885742 C99.3684082 48.34057617 99.3684082 48.34057617 92.3684082 52.34057617 C108.7034082 52.83557617 108.7034082 52.83557617 125.3684082 53.34057617 C125.4302832 56.86745117 125.4921582 60.39432617 125.5559082 64.02807617 C125.58322021 65.13111084 125.61053223 66.23414551 125.63867188 67.37060547 C125.71870785 76.77956586 125.71870785 76.77956586 122.3684082 80.34057617 C116.81370134 84.00922927 111.88794766 83.6099971 105.44799805 83.42773438 C104.4317334 83.39897217 103.41546875 83.37020996 102.3684082 83.34057617 C102.60440735 84.25565948 102.84040649 85.1707428 103.08355713 86.11355591 C105.95547337 97.36105938 108.47228299 108.67285737 110.9152832 120.02026367 C111.1212336 120.97500706 111.32718399 121.92975044 111.53937531 122.91342545 C112.62535177 127.94934119 113.70797286 132.98596459 114.7878418 138.02319336 C115.89752383 143.19602198 117.01933539 148.36614339 118.14377975 153.53577995 C119.01365848 157.5459225 119.87439435 161.5579885 120.73270416 165.57062149 C121.14231195 167.47779111 121.55532955 169.38423195 121.97194672 171.28988266 C122.5535992 173.9543769 123.12213691 176.62136691 123.68774414 179.28930664 C123.85912399 180.06043289 124.03050385 180.83155914 124.20707703 181.62605286 C125.33940059 187.06017729 126.26780687 192.81662097 125.3684082 198.34057617 C123.31368372 201.08046238 122.40045196 201.33300219 118.9309082 202.15307617 C113.70638037 202.42805132 113.70638037 202.42805132 111.3684082 200.34057617 C108.7774883 194.23932075 107.28134214 188.1133973 105.91650391 181.6418457 C105.6917337 180.60025803 105.4669635 179.55867035 105.23538208 178.48551941 C104.49906341 175.06605016 103.7714924 171.64478584 103.04418945 168.22338867 C102.53328732 165.84054531 102.02190224 163.45780544 101.51005554 161.07516479 C100.44144798 156.09476385 99.37684459 151.11353051 98.31542969 146.1315918 C96.95241783 139.73435812 95.58224281 133.33868649 94.20945454 126.94354439 C93.15505921 122.03018786 92.10298768 117.11633637 91.05177879 112.20229721 C90.54698626 109.84260643 90.04179995 107.48299985 89.53621864 105.12347794 C88.8326966 101.83708789 88.13196146 98.55011687 87.43212891 95.26293945 C87.22177505 94.28216934 87.0114212 93.30139923 86.79469299 92.29090881 C86.5109079 90.95365501 86.5109079 90.95365501 86.22138977 89.58938599 C86.05567632 88.81256533 85.88996286 88.03574467 85.71922779 87.23538399 C85.3684082 85.34057617 85.3684082 85.34057617 85.3684082 83.34057617 C70.1884082 83.34057617 55.0084082 83.34057617 39.3684082 83.34057617 C39.0384082 86.31057617 38.7084082 89.28057617 38.3684082 92.34057617 C38.08773729 93.98426473 37.78184979 95.62419715 37.43313599 97.25480652 C37.25098541 98.11675125 37.06883484 98.97869598 36.88116455 99.86676025 C36.68375671 100.77875183 36.48634888 101.69074341 36.28295898 102.63037109 C35.96810043 104.11018211 35.96810043 104.11018211 35.6468811 105.61988831 C34.95718041 108.85462985 34.26084027 112.08789471 33.5637207 115.32104492 C33.07893539 117.58063975 32.59430855 119.84026859 32.10983276 122.09992981 C31.09581748 126.82365056 30.07820074 131.54657892 29.05834961 136.26904297 C27.75293404 142.31639534 26.45912939 148.36616691 25.16832161 154.41665173 C24.17191739 159.07872621 23.16806957 163.73917459 22.16210556 168.39919472 C21.68187999 170.6293297 21.20426952 172.8600295 20.72934341 175.09129906 C20.06486249 178.20891896 19.39006235 181.32413373 18.71264648 184.43896484 C18.42260742 185.81606125 18.42260742 185.81606125 18.12670898 187.22097778 C15.63568717 198.54238941 15.63568717 198.54238941 11.5559082 201.77807617 C8.46206924 202.57363476 6.42746117 202.23279995 3.3684082 201.34057617 C0.9934082 199.71557617 0.9934082 199.71557617 -0.6315918 197.34057617 C-1.08075848 191.37563168 0.10453042 185.93907733 1.37207031 180.15429688 C1.58504257 179.15508209 1.79801483 178.15586731 2.0174408 177.12637329 C2.72006723 173.83819958 3.43281628 170.55230991 4.14575195 167.26635742 C4.63720674 164.97678891 5.12804769 162.68708856 5.61830139 160.39726257 C6.90866084 154.37885521 8.20771573 148.3623564 9.50848389 142.34619141 C10.83129188 136.2198641 12.14519713 130.09162836 13.46020508 123.96362305 C15.38097166 115.02104871 17.30398169 106.07896275 19.23535156 97.13867188 C19.53853302 95.7320504 19.53853302 95.7320504 19.84783936 94.29701233 C20.12756844 93.00395172 20.12756844 93.00395172 20.41294861 91.68476868 C20.57426238 90.93799016 20.73557615 90.19121164 20.90177822 89.42180347 C21.35830813 87.38562375 21.85333829 85.36266328 22.3684082 83.34057617 C21.4505957 83.38698242 20.5327832 83.43338867 19.5871582 83.48120117 C18.3599707 83.51729492 17.1327832 83.55338867 15.8684082 83.59057617 C14.6618457 83.63698242 13.4552832 83.68338867 12.2121582 83.73120117 C8.6974809 83.37401852 7.13975697 82.89861216 4.12817383 81.31616211 C3.06644958 80.76457428 3.06644958 80.76457428 1.98327637 80.20184326 C1.45036987 79.91762512 0.91746338 79.63340698 0.3684082 79.34057617 C0.25797998 80.18402855 0.25797998 80.18402855 0.14532089 81.04452038 C-1.64822935 94.73492352 -3.46008202 108.42279702 -5.29161453 122.10817242 C-6.17678516 128.72645217 -7.0558685 135.34539581 -7.92114258 141.96630859 C-8.7562799 148.3548881 -9.60727849 154.74117079 -10.46935272 161.1261692 C-10.79557769 163.56347291 -11.1160637 166.00155181 -11.43073273 168.44037437 C-11.87220026 171.85423921 -12.33392884 175.26478661 -12.80053711 178.67529297 C-12.92641708 179.68589783 -13.05229706 180.69650269 -13.18199158 181.73773193 C-13.92053077 186.96612188 -14.57129038 190.60596543 -18.6315918 194.34057617 C-21.04174805 194.97167969 -21.04174805 194.97167969 -23.6940918 194.96948242 C-24.65573242 194.97141602 -25.61737305 194.97334961 -26.6081543 194.9753418 C-27.60588867 194.95149414 -28.60362305 194.92764648 -29.6315918 194.90307617 C-30.62932617 194.9140332 -31.62706055 194.92499023 -32.6550293 194.9362793 C-39.95303648 194.86290791 -39.95303648 194.86290791 -42.75048065 192.70951843 C-45.21085158 189.61109616 -45.13438537 187.835376 -45.13952637 183.90405273 C-45.14576633 183.259817 -45.15200629 182.61558126 -45.15843534 181.95182323 C-45.1743807 179.79457607 -45.161756 177.63845656 -45.14916992 175.48120117 C-45.15459084 173.93359214 -45.16171333 172.38598826 -45.17041016 170.83839417 C-45.18866243 166.63328555 -45.18156505 162.42856909 -45.16889381 158.22345352 C-45.15876146 153.81546222 -45.16816149 149.40750435 -45.17443848 144.99951172 C-45.18172032 137.58823637 -45.17211954 130.1771203 -45.15307617 122.76586914 C-45.13137054 114.2203416 -45.13831048 105.67519676 -45.16038179 97.12967873 C-45.17859743 89.78081828 -45.1810622 82.4320724 -45.17062712 75.08319664 C-45.16441764 70.69980998 -45.1634846 66.31660241 -45.17677307 61.93322754 C-45.18841861 57.80281351 -45.18014896 53.67288635 -45.15719604 49.54252434 C-45.15195224 48.03499086 -45.15334756 46.5274157 -45.1622467 45.01989937 C-45.22722264 32.88375122 -43.7988833 21.90478387 -35.6706543 12.37573242 C-25.36699266 2.0918096 -14.17177955 -0.136484 0 0 Z " fill="#5D5260" transform="translate(386.631591796875,309.659423828125)"/>
<path d="M0 0 C4.38754438 2.15388542 7.52067915 4.77597188 10 9 C11.60838709 15.00810404 11.45399341 19.87974476 8.32421875 25.3046875 C6.2339926 27.98067025 3.96932715 29.38036701 1 31 C1.16081055 31.70866211 1.32162109 32.41732422 1.48730469 33.14746094 C2.38613989 38.14840878 2.2264522 43.18133647 2.25 48.25 C2.2809375 49.89162109 2.2809375 49.89162109 2.3125 51.56640625 C2.36327682 62.16606693 0.54904295 69.25535238 -6.79296875 77.046875 C-9.96828194 79.85688667 -13.08872245 81.39358244 -17 83 C-14.82257772 84.67494021 -12.6917507 86.17921471 -10.3125 87.5625 C0.46061455 94.81730626 6.56763732 106.36827061 9.58137131 118.73542786 C10.31844328 122.72261909 10.26050945 126.6775458 10.22705078 130.72070312 C10.22734283 131.65821411 10.22763489 132.5957251 10.22793579 133.56164551 C10.22655165 136.63494388 10.21103376 139.70799441 10.1953125 142.78125 C10.19157911 144.92215848 10.18873368 147.06306868 10.18673706 149.20397949 C10.17912626 154.81979141 10.15949977 160.43549874 10.1373291 166.05126953 C10.11320447 172.79947753 10.10407753 179.54772063 10.09242249 186.29595947 C10.07307387 196.53071224 10.03473336 206.76523582 10 217 C-16.4 217 -42.8 217 -70 217 C-74.1766547 208.64669061 -71 198.33928382 -71 189 C-99.05 189 -127.1 189 -156 189 C-156 178.34852841 -153.67747064 171.65356774 -146.22265625 163.96875 C-135.86462187 154.79397086 -120.40988663 153.95208181 -107.20553589 152.2258606 C-104.49314158 151.86661955 -101.78520492 151.4782258 -99.07702637 151.08862305 C-97.09853256 150.81743884 -95.11408358 150.59090211 -93.12988281 150.36523438 C-86.55827423 149.54190465 -86.55827423 149.54190465 -81.02539062 146.2331543 C-79.42337735 143.89968443 -78.21388599 141.55623429 -77 139 C-75.93195285 137.11423708 -74.85602783 135.2329204 -73.7734375 133.35546875 C-72.63809906 131.30087294 -71.50538052 129.24482768 -70.375 127.1875 C-65.81932423 118.98764871 -61.2222766 110.81872878 -56.4375 102.75 C-55.9616748 101.9355542 -55.48584961 101.1211084 -54.99560547 100.28198242 C-50.11383341 92.1217059 -44.13713958 86.22487279 -35 83 C-35.87011719 82.58041016 -35.87011719 82.58041016 -36.7578125 82.15234375 C-45.29490234 77.77109798 -49.71686558 72.78049002 -53.1730957 63.84692383 C-54.61173157 58.89388784 -54.53780118 54.05933146 -54.4375 48.9375 C-54.44458984 47.91333984 -54.45167969 46.88917969 -54.45898438 45.83398438 C-54.36981068 35.09884337 -52.0282067 27.97558467 -44.51953125 20.17578125 C-37.45644682 14.07634245 -30.0441251 13.38101045 -21 14 C-20.938125 13.13375 -20.87625 12.2675 -20.8125 11.375 C-19.68959853 6.71064004 -17.27137971 3.42384997 -13.16796875 0.8515625 C-8.92669013 -0.81438118 -4.46793891 -0.52525842 0 0 Z " fill="#B7B5FE" transform="translate(488,93)"/>
<path d="M0 0 C5.64892211 4.32265344 8.99522079 10.62959419 10.54296875 17.51171875 C12.04450724 30.34445491 12.42250249 43.79490675 4.71875 54.6640625 C1.87884207 57.96082518 -1.44001608 60.39538636 -5.078125 62.75 C-4.26988281 63.05292969 -3.46164063 63.35585937 -2.62890625 63.66796875 C7.98514389 67.82908612 7.98514389 67.82908612 11.921875 72.75 C12.55754395 73.51658936 13.19321289 74.28317871 13.84814453 75.07299805 C15.85286758 77.66091754 17.48311735 80.23981618 19.1015625 83.08203125 C19.69388672 84.11714844 20.28621094 85.15226562 20.89648438 86.21875 C21.52361328 87.3221875 22.15074219 88.425625 22.796875 89.5625 C23.79687298 91.29897634 24.79687352 93.03545121 25.79705811 94.77182007 C28.84102166 100.06385011 31.82988479 105.38192894 34.7734375 110.73046875 C35.38719238 111.82705811 36.00094727 112.92364746 36.63330078 114.0534668 C37.80361986 116.1450567 38.95643274 118.24656276 40.08935547 120.35864258 C40.88817139 121.77439575 40.88817139 121.77439575 41.703125 123.21875 C42.15751953 124.04826172 42.61191406 124.87777344 43.08007812 125.73242188 C47.34622975 130.40573537 55.41292922 130.41349418 61.44140625 131.3359375 C63.28717803 131.62977741 65.13287902 131.92406222 66.97851562 132.21875 C69.8541585 132.67332739 72.73021914 133.12436015 75.60766602 133.56738281 C103.19589782 137.83465283 103.19589782 137.83465283 112.921875 148.75 C117.9563371 156.06739241 118.921875 160.73212183 118.921875 169.75 C90.871875 169.75 62.821875 169.75 33.921875 169.75 C33.921875 178.66 33.921875 187.57 33.921875 196.75 C32.20200294 198.46987206 30.01310471 197.86974788 27.72055054 197.87442017 C26.97608673 197.87082489 26.23162292 197.86722961 25.46459961 197.86352539 C24.68416794 197.86367142 23.90373627 197.86381744 23.09965515 197.8639679 C20.5078152 197.86326858 17.91604622 197.85547536 15.32421875 197.84765625 C13.5320286 197.84579213 11.73983794 197.8443682 9.94764709 197.84336853 C5.22116703 197.83954284 0.49471748 197.82971212 -4.23175049 197.81866455 C-9.0509805 197.80845153 -13.87021542 197.80387115 -18.68945312 197.79882812 C-28.15235719 197.78808989 -37.61523856 197.77101286 -47.078125 197.75 C-47.17114153 185.45773921 -47.24205005 173.16556328 -47.28537369 160.87302113 C-47.30617548 155.1639995 -47.33435695 149.45522014 -47.37988281 143.74633789 C-47.42360576 138.22849358 -47.44731771 132.7108811 -47.45763397 127.19287682 C-47.4649781 125.09631391 -47.47931842 122.99976252 -47.50104523 120.90329933 C-47.69480679 101.41737972 -44.99379846 86.64500926 -31.3046875 71.92578125 C-28.7131699 69.39336843 -26.22492551 67.52511824 -23.078125 65.75 C-23.63757813 65.47414063 -24.19703125 65.19828125 -24.7734375 64.9140625 C-33.38748495 60.56323853 -40.53150401 56.39006086 -44.12719727 47.01464844 C-45.75730549 41.41829228 -45.48852859 35.79260946 -45.515625 30 C-45.54849609 28.77539062 -45.58136719 27.55078125 -45.61523438 26.2890625 C-45.67384542 16.33584198 -43.41571981 9.454974 -36.953125 1.875 C-26.26202829 -7.95616067 -11.8257305 -7.11322135 0 0 Z " fill="#B1E49E" transform="translate(61.078125,112.25)"/>
<path d="M0 0 C1.05556595 -0.00571014 2.1111319 -0.01142029 3.19868469 -0.01730347 C4.92790665 -0.01898026 4.92790665 -0.01898026 6.69206238 -0.02069092 C7.91035233 -0.02565582 9.12864227 -0.03062073 10.3838501 -0.03573608 C13.72283575 -0.04783329 17.06175887 -0.05529984 20.40075898 -0.05974674 C22.48867896 -0.06268171 24.5765935 -0.06678732 26.66451073 -0.07125092 C33.20255724 -0.08491882 39.74059125 -0.09458896 46.27865106 -0.09845281 C53.81585744 -0.10293212 61.35288234 -0.12047693 68.89003354 -0.1494534 C74.72287547 -0.1710963 80.55566644 -0.18115847 86.38854808 -0.18249393 C89.86913741 -0.18354008 93.349556 -0.1894073 96.83010292 -0.20731354 C100.71513807 -0.22691263 104.59994779 -0.22249484 108.48503113 -0.21600342 C109.63177307 -0.2252182 110.77851501 -0.23443298 111.96000671 -0.243927 C118.85604238 -0.20783287 124.35158507 0.13314402 129.74357605 4.85919189 C130.44353699 5.74091064 130.44353699 5.74091064 131.15763855 6.64044189 C131.88080261 7.52216064 131.88080261 7.52216064 132.61857605 8.42169189 C135.44863365 12.60030043 134.91004784 17.1362205 134.8802948 21.96466064 C134.87817238 23.25676201 134.87817238 23.25676201 134.87600708 24.57496643 C134.87040995 27.32599359 134.85785801 30.07693934 134.84513855 32.82794189 C134.84012318 34.69317509 134.83556034 36.55840957 134.83146667 38.42364502 C134.82044147 42.99594201 134.80317882 47.56817815 134.78263855 52.14044189 C133.63666199 52.17782471 132.49068542 52.21520752 131.3099823 52.25372314 C129.78000409 52.31942773 128.25005758 52.38587348 126.72013855 52.45294189 C125.96797058 52.47550049 125.21580261 52.49805908 124.44084167 52.52130127 C118.07905993 52.82424326 112.90779256 53.84751257 108.40763855 58.70294189 C105.4453066 63.14643981 105.56712907 66.86581345 105.4662323 72.08575439 C105.43506065 73.41327225 105.43506065 73.41327225 105.40325928 74.76760864 C105.33777257 77.60013931 105.27888293 80.43276414 105.22013855 83.26544189 C105.17695249 85.18342046 105.13333818 87.10138943 105.08927917 89.01934814 C104.98209208 93.7262824 104.88082215 98.43331157 104.78263855 103.14044189 C104.06568817 103.13520508 103.34873779 103.12996826 102.61006165 103.12457275 C95.81400122 103.08208099 89.01887641 103.07842294 82.222826 103.11709595 C78.72962295 103.13563897 75.237702 103.13978733 71.74455261 103.10968018 C67.71729605 103.07562786 63.69271413 103.10662855 59.66545105 103.14044189 C58.42651093 103.12102539 57.1875708 103.10160889 55.91108704 103.081604 C46.80295896 103.23141564 42.221374 105.82944641 35.78263855 112.14044189 C34.79392761 112.94352783 33.80521667 113.74661377 32.7865448 114.57403564 C31.98088074 115.23532471 31.17521667 115.89661377 30.34513855 116.57794189 C29.43763855 117.32173096 28.53013855 118.06552002 27.59513855 118.83184814 C25.65725536 120.42252726 23.71977935 122.01370252 21.78263855 123.60528564 C20.81326355 124.40063721 19.84388855 125.19598877 18.84513855 126.01544189 C17.53222839 127.09438721 17.53222839 127.09438721 16.1927948 128.19512939 C15.39744324 128.83708252 14.60209167 129.47903564 13.78263855 130.14044189 C12.71916199 131.01829346 12.71916199 131.01829346 11.63420105 131.91387939 C9.78263855 133.14044189 9.78263855 133.14044189 7.09513855 132.89044189 C4.78263855 132.14044189 4.78263855 132.14044189 3.78263855 131.14044189 C3.64920374 129.39621815 3.57919496 127.64705464 3.5365448 125.89825439 C3.50367371 124.83219971 3.47080261 123.76614502 3.43693542 122.66778564 C3.3759509 120.40746559 3.31863315 118.14704351 3.26506042 115.88653564 C3.23090027 114.81790283 3.19674011 113.74927002 3.1615448 112.64825439 C3.13648865 111.66486084 3.1114325 110.68146729 3.08561707 109.66827393 C2.94649605 106.89684327 2.94649605 106.89684327 0.78263855 104.14044189 C-1.92655708 103.30181354 -1.92655708 103.30181354 -5.02986145 102.76544189 C-10.15634147 101.58193634 -13.0387582 100.54947222 -16.21736145 96.14044189 C-18.94474405 91.54041391 -19.65591741 87.77476179 -19.62141418 82.5178833 C-19.62827744 81.77883255 -19.63514069 81.0397818 -19.64221191 80.27833557 C-19.66042573 77.84935981 -19.65664982 75.42103342 -19.6509552 72.99200439 C-19.65552015 71.29338371 -19.66082666 69.59476486 -19.6668396 67.89614868 C-19.67576046 64.34045905 -19.67335995 60.78499412 -19.66340637 57.22930908 C-19.65192759 52.68767234 -19.67211628 48.14681439 -19.70132351 43.60527992 C-19.71973103 40.09808477 -19.71938386 36.5910746 -19.71368599 33.08384323 C-19.71353328 31.41021 -19.71953585 29.73656383 -19.73197746 28.06297684 C-19.83645629 11.70329033 -19.83645629 11.70329033 -15.21736145 5.14044189 C-10.19997656 1.06381668 -6.32272351 0.02052402 0 0 Z " fill="#F6D3AC" transform="translate(134.2173614501953,-0.14044189453125)"/>
<path d="M0 0 C34.65 0 69.3 0 105 0 C103.19075687 10.85545875 96.09987565 20.62391192 87.30664062 27.28222656 C84.85928208 29.01216543 82.38265023 30.69632537 79.90161133 32.37744141 C74.04246325 36.44923058 70.35895551 40.84746493 69 48 C68.90030558 49.89213218 68.85392724 51.78735005 68.84178162 53.68206787 C68.8319928 54.84030563 68.82220398 55.9985434 68.81211853 57.19187927 C68.80636307 58.45854935 68.8006076 59.72521942 68.79467773 61.03027344 C68.78509522 62.380603 68.77508492 63.73092958 68.76467896 65.08125305 C68.73766428 68.74410345 68.71663613 72.40696669 68.69667697 76.06986141 C68.6747962 79.89891329 68.64741774 83.72792574 68.62062073 87.5569458 C68.57072212 94.80643952 68.52577279 102.05595515 68.48259836 109.30549169 C68.43320178 117.55938327 68.37829263 125.81323529 68.32291877 134.0670886 C68.2091422 151.04468916 68.10229375 168.02232645 68 185 C68.64026123 184.97905273 69.28052246 184.95810547 69.94018555 184.93652344 C72.85579575 184.85310716 75.77115452 184.80126031 78.6875 184.75 C79.69490234 184.71648437 80.70230469 184.68296875 81.74023438 184.6484375 C89.21477232 184.54976373 89.21477232 184.54976373 93.140625 186.80078125 C95.75085034 189.88808559 96.07042175 191.98596026 96 196 C93.91374661 199.42741629 92.8255689 200.72481037 89 202 C86.65034128 202.10521167 84.29778108 202.14871125 81.94580078 202.16113281 C81.23162994 202.16609772 80.51745911 202.17106262 79.78164673 202.17617798 C77.41952551 202.19078048 75.05747144 202.1975982 72.6953125 202.203125 C71.05248004 202.20887779 69.40964761 202.21463551 67.76681519 202.22039795 C64.32191658 202.23090233 60.87704127 202.23674875 57.43212891 202.24023438 C53.02142616 202.24571957 48.61103205 202.26975033 44.2004261 202.29820633 C40.80662134 202.31684414 37.41289077 202.3220389 34.01903915 202.32357025 C32.39315986 202.32659446 30.7672818 202.33461522 29.14145279 202.34775543 C26.86506 202.3648411 24.58941946 202.36292996 22.31298828 202.35644531 C21.0185379 202.36009094 19.72408752 202.36373657 18.39041138 202.36749268 C14.76471158 201.97449667 12.88086979 201.19300372 10 199 C8.47153339 195.94306678 8.76757555 193.37015453 9 190 C10.76015131 186.8149643 11.49890916 186.16703028 15 185 C16.55421729 184.91893314 18.11167027 184.89243102 19.66796875 184.90234375 C20.56064453 184.90556641 21.45332031 184.90878906 22.37304688 184.91210938 C23.30181641 184.92048828 24.23058594 184.92886719 25.1875 184.9375 C26.12787109 184.94201172 27.06824219 184.94652344 28.03710938 184.95117188 C30.35813712 184.96295374 32.67903644 184.97940442 35 185 C34.96278458 167.03195494 34.90285229 149.06413476 34.81609726 131.09626102 C34.77633855 122.75289157 34.74393001 114.409616 34.72900391 106.06616211 C34.71597091 98.79145936 34.68896439 91.51696346 34.64538693 84.24237722 C34.62280894 80.39279184 34.6070871 76.54346125 34.60811615 72.69380379 C34.60886495 69.06488977 34.5908271 65.43653817 34.55883217 61.80776978 C34.54634967 59.85218711 34.55338005 57.89650981 34.56114197 55.94090271 C34.47069163 48.25684716 33.8827707 41.11892765 28.3854332 35.2872324 C26.66105441 33.73902705 24.87191592 32.36609249 23 31 C13.23302524 23.82207705 4.10899665 15.76948788 0 4 C0 2.68 0 1.36 0 0 Z " fill="#D9D7DA" transform="translate(202,310)"/>
<path d="M0 0 C1.23743958 -0.00001511 1.23743958 -0.00001511 2.49987793 -0.00003052 C55.33794049 0.0006147 108.16856358 0.21502123 161 1.125 C161.05929131 3.52770984 161.1025582 5.92894093 161.13671875 8.33203125 C161.16421204 9.3462616 161.16421204 9.3462616 161.19226074 10.38098145 C161.25461782 16.23363828 159.99971629 19.90790782 156 24.125 C149.74062502 29.80210754 144.92771609 29.42668958 136.73193359 29.67919922 C136.0680144 29.70016151 135.40409521 29.72112381 134.72005725 29.74272132 C112.51744373 30.42169601 90.29661776 30.27098209 68.08633471 30.2593255 C61.6303405 30.25675315 55.17434755 30.25915283 48.71835327 30.26071167 C37.19501441 30.26263469 25.67168327 30.25957075 14.14834563 30.25445233 C3.78020839 30.24998893 -6.58791764 30.2507617 -16.95605469 30.25537109 C-29.10238861 30.26076878 -41.24871459 30.26269023 -53.39504969 30.25975883 C-59.7857017 30.25821901 -66.17634605 30.2579378 -72.56699753 30.26129532 C-87.09649965 30.26762175 -101.62521795 30.24311526 -116.15441036 30.14338398 C-118.89702516 30.12566527 -121.63962582 30.113062 -124.38227081 30.10109711 C-128.34376528 30.08059997 -132.30399118 30.03389306 -136.26488805 29.96244788 C-138.28145098 29.93065118 -140.29833279 29.92149549 -142.31513023 29.91342354 C-149.34298898 29.7445943 -154.6785738 29.02723302 -160 24.125 C-161.2263757 21.67224859 -161.11415314 20.0744219 -161.09765625 17.3359375 C-161.09443359 16.39492188 -161.09121094 15.45390625 -161.08789062 14.484375 C-161.07951172 13.49953125 -161.07113281 12.5146875 -161.0625 11.5 C-161.05798828 10.50742187 -161.05347656 9.51484375 -161.04882812 8.4921875 C-161.03702145 6.0363984 -161.020554 3.58072896 -161 1.125 C-107.33521454 0.20066746 -53.67144227 -0.0006552 0 0 Z " fill="#7C5757" transform="translate(256,280.875)"/>
<path d="M0 0 C41.58 0 83.16 0 126 0 C126 22 126 22 123 27 C118.4880482 29.97995671 114.96482498 30.33862712 109.625 30.1875 C108.37976563 30.16042969 107.13453125 30.13335937 105.8515625 30.10546875 C104.91054687 30.07066406 103.96953125 30.03585937 103 30 C103.27339706 31.26676071 103.54679413 32.53352142 103.82847595 33.83866882 C106.40388284 45.77182282 108.97889479 57.70506198 111.55351925 69.63838482 C112.877196 75.77353323 114.20101228 81.90865147 115.52514648 88.04370117 C116.80279874 93.96341303 118.08008573 99.88320359 119.35711861 105.80304909 C119.84459973 108.06251652 120.33221286 110.32195548 120.81995964 112.58136559 C121.50263616 115.74386589 122.18484493 118.90646676 122.86694336 122.0690918 C123.06906433 123.00489075 123.2711853 123.9406897 123.47943115 124.90484619 C126.47331049 138.79358461 126.47331049 138.79358461 126 144 C123.94502229 147.00342896 122.52366286 147.83287356 119.0625 148.9375 C115.18480883 149.01663655 113.86811523 148.63556535 111 146 C108.29035793 139.86199172 107.01763893 133.12082203 105.63989258 126.58666992 C105.42487595 125.58716309 105.20985931 124.58765625 104.98832703 123.55786133 C104.28529143 120.28313267 103.58969395 117.00687694 102.89453125 113.73046875 C102.40590587 111.44355791 101.91694294 109.15671917 101.42765808 106.86994934 C100.40657449 102.09213468 99.38909521 97.31357108 98.37426758 92.53442383 C97.0725201 86.40517996 95.76249914 80.27773998 94.44989491 74.1508131 C93.44058729 69.43579811 92.43526206 64.71994109 91.43118858 60.00380898 C90.94949248 57.74329572 90.46663953 55.48302866 89.98261452 53.22301292 C89.30838721 50.07162852 88.63943449 46.91917034 87.97192383 43.76635742 C87.77092072 42.83175186 87.5699176 41.8971463 87.36282349 40.93421936 C87.18204758 40.07506927 87.00127167 39.21591919 86.8150177 38.33073425 C86.65667859 37.58655337 86.49833948 36.84237249 86.33520222 36.07564068 C86 34 86 34 86 30 C70.82 30 55.64 30 40 30 C39.37222656 33.18011719 38.74445312 36.36023438 38.09765625 39.63671875 C34.63597001 57.00028999 31.02094533 74.33253927 27.36517906 91.65616035 C26.28318293 96.78458319 25.20728765 101.91413258 24.14477539 107.04663086 C23.10183471 112.08385058 22.04430971 117.1177989 20.97627449 122.14975548 C20.57519907 124.05166089 20.17931398 125.95466879 19.78881645 127.85877419 C19.24616909 130.49993232 18.6848744 133.13646313 18.11889648 135.77270508 C17.96346878 136.55126358 17.80804108 137.32982208 17.64790344 138.13197327 C16.67750089 142.53923108 15.64987649 145.25188805 12 148 C8.31548282 149.17590974 6.71745725 149.33481338 3.1875 147.6875 C1 146 1 146 0 144 C-0.32114814 137.2047789 0.54660541 131.17573089 2.00366211 124.55493164 C2.21663437 123.55221222 2.42960663 122.5494928 2.64903259 121.51638794 C3.34961967 118.22901176 4.06325901 114.94462449 4.77734375 111.66015625 C5.26891855 109.36868059 5.75975741 107.07704695 6.24989319 104.78526306 C7.27584602 99.99714215 8.3077538 95.21035966 9.34448242 90.42456055 C10.67541654 84.2803111 11.99589836 78.13387726 13.31253719 71.98655033 C14.56802411 66.12697374 15.82876639 60.26853174 17.08984375 54.41015625 C17.33078199 53.28861712 17.57172024 52.16707798 17.81995964 51.01155281 C18.49937249 47.85349881 19.18252959 44.6962801 19.86694336 41.53930664 C20.17012482 40.12661247 20.17012482 40.12661247 20.47943115 38.68537903 C20.75916023 37.40077789 20.75916023 37.40077789 21.04454041 36.09022522 C21.20585418 35.34420075 21.36716795 34.59817629 21.53337002 33.82954502 C22 32 22 32 23 30 C21.67935547 30.03480469 21.67935547 30.03480469 20.33203125 30.0703125 C18.58986328 30.09738281 18.58986328 30.09738281 16.8125 30.125 C15.66394531 30.14820313 14.51539063 30.17140625 13.33203125 30.1953125 C9.91281883 29.99488973 7.96025476 29.69572695 5 28 C0 22 0 22 0 0 Z " fill="#FEC168" transform="translate(0,363)"/>
<path d="M0 0 C0.04637034 2.64310937 0.09257868 5.28621907 0.13760376 7.92935181 C0.17439451 9.96305894 0.21991467 11.99661265 0.27026367 14.0300293 C0.35029965 23.43898968 0.35029965 23.43898968 -3 27 C-8.55470687 30.6686531 -13.48046054 30.26942093 -19.92041016 30.0871582 C-20.9366748 30.058396 -21.95293945 30.02963379 -23 30 C-22.76400085 30.91508331 -22.52800171 31.83016663 -22.28485107 32.77297974 C-19.41293484 44.0204832 -16.89612521 55.3322812 -14.453125 66.6796875 C-14.24717461 67.63443089 -14.04122421 68.58917427 -13.8290329 69.57284927 C-12.74305643 74.60876502 -11.66043534 79.64538842 -10.58056641 84.68261719 C-9.47088437 89.85544581 -8.34907281 95.02556722 -7.22462845 100.19520378 C-6.35474973 104.20534633 -5.49401385 108.21741233 -4.63570404 112.23004532 C-4.22609626 114.13721494 -3.81307865 116.04365578 -3.39646149 117.94930649 C-2.814809 120.61380073 -2.2462713 123.28079074 -1.68066406 125.94873047 C-1.50928421 126.71985672 -1.33790436 127.49098297 -1.16133118 128.28547668 C-0.02900761 133.71960112 0.89939867 139.4760448 0 145 C-2.05472448 147.73988621 -2.96795624 147.99242602 -6.4375 148.8125 C-11.66202783 149.08747515 -11.66202783 149.08747515 -14 147 C-16.59091991 140.89874458 -18.08706606 134.77282113 -19.4519043 128.30126953 C-19.6766745 127.25968185 -19.9014447 126.21809418 -20.13302612 125.14494324 C-20.86934479 121.72547399 -21.5969158 118.30420967 -22.32421875 114.8828125 C-22.83512088 112.49996913 -23.34650597 110.11722927 -23.85835266 107.73458862 C-24.92696023 102.75418767 -25.99156361 97.77295434 -27.05297852 92.79101562 C-28.41599037 86.39378195 -29.78616539 79.99811032 -31.15895367 73.60296822 C-32.21334899 68.68961169 -33.26542053 63.7757602 -34.31662941 58.86172104 C-34.82142194 56.50203025 -35.32660826 54.14242367 -35.83218956 51.78290176 C-36.5357116 48.49651172 -37.23644675 45.2095407 -37.9362793 41.92236328 C-38.14663315 40.94159317 -38.356987 39.96082306 -38.57371521 38.95033264 C-38.85750031 37.61307884 -38.85750031 37.61307884 -39.14701843 36.24880981 C-39.31273189 35.47198915 -39.47844534 34.6951685 -39.64918041 33.89480782 C-40 32 -40 32 -40 30 C-55.18 30 -70.36 30 -86 30 C-86.33 32.97 -86.66 35.94 -87 39 C-87.28067091 40.64368855 -87.58655841 42.28362098 -87.93527222 43.91423035 C-88.11742279 44.77617508 -88.29957336 45.63811981 -88.48724365 46.52618408 C-88.68465149 47.43817566 -88.88205933 48.35016724 -89.08544922 49.28979492 C-89.29535492 50.2763356 -89.50526062 51.26287628 -89.7215271 52.27931213 C-90.41122779 55.51405367 -91.10756794 58.74731854 -91.8046875 61.98046875 C-92.28947281 64.24006358 -92.77409966 66.49969242 -93.25857544 68.75935364 C-94.27259073 73.48307439 -95.29020746 78.20600274 -96.31005859 82.9284668 C-97.61547416 88.97581917 -98.90927881 95.02559074 -100.20008659 101.07607555 C-101.19649081 105.73815004 -102.20033863 110.39859842 -103.20630264 115.05861855 C-103.68652822 117.28875353 -104.16413868 119.51945333 -104.63906479 121.75072289 C-105.30354571 124.86834279 -105.97834585 127.98355756 -106.65576172 131.09838867 C-106.94580078 132.47548508 -106.94580078 132.47548508 -107.24169922 133.88040161 C-109.73272104 145.20181324 -109.73272104 145.20181324 -113.8125 148.4375 C-116.90633896 149.23305859 -118.94094704 148.89222378 -122 148 C-124.375 146.375 -124.375 146.375 -126 144 C-126.44916669 138.03505551 -125.26387779 132.59850115 -123.99633789 126.8137207 C-123.78336563 125.81450592 -123.57039337 124.81529114 -123.35096741 123.78579712 C-122.64834097 120.49762341 -121.93559192 117.21173373 -121.22265625 113.92578125 C-120.73120147 111.63621274 -120.24036052 109.34651239 -119.75010681 107.0566864 C-118.45974736 101.03827904 -117.16069247 95.02178023 -115.85992432 89.00561523 C-114.53711632 82.87928793 -113.22321107 76.75105219 -111.90820312 70.62304688 C-109.98743654 61.68047254 -108.06442651 52.73838658 -106.13305664 43.7980957 C-105.93093567 42.86034805 -105.7288147 41.9226004 -105.52056885 40.95643616 C-105.33408279 40.09439575 -105.14759674 39.23235535 -104.95545959 38.3441925 C-104.79414582 37.59741399 -104.63283205 36.85063547 -104.46662998 36.0812273 C-104.01010007 34.04504758 -103.51506991 32.02208711 -103 30 C-103.92941406 30.04640625 -104.85882813 30.0928125 -105.81640625 30.140625 C-118.30227743 30.50517598 -118.30227743 30.50517598 -124 26 C-125.29884195 23.40231609 -125.16860996 21.46778866 -125.1875 18.5625 C-125.20167969 17.59441406 -125.21585937 16.62632812 -125.23046875 15.62890625 C-125.02601148 12.40957053 -124.57707311 9.43775132 -123.9855957 6.27319336 C-123.80205032 5.28500107 -123.61850494 4.29680878 -123.42939758 3.27867126 C-123.28769638 2.52670975 -123.14599518 1.77474823 -123 1 C-113.01666768 0.86641283 -103.03329954 0.73591049 -93.04988194 0.60884857 C-88.40896759 0.54969593 -83.76806893 0.48966429 -79.12719727 0.42724609 C-52.75001509 0.07335441 -26.37951755 -0.06812655 0 0 Z " fill="#FEC168" transform="translate(512,363)"/>
<path d="M0 0 C0.928125 0.02449219 1.85625 0.04898438 2.8125 0.07421875 C7.76780456 0.72882574 10.23958442 2.02990172 13.3515625 6 C15.57982036 9.585971 17.51279778 13.32291936 19.45117188 17.07128906 C22.28333944 22.42669292 25.33248956 27.66143394 28.3500061 32.91384888 C29.42460451 34.78998582 30.4911488 36.67047897 31.55541992 38.55249023 C32.22314045 39.72900622 32.89086489 40.90551999 33.55859375 42.08203125 C34.14954834 43.12593018 34.74050293 44.1698291 35.34936523 45.24536133 C37.8700071 49.94707574 37.8700071 49.94707574 42.11573792 52.7578125 C43.33957436 52.93957031 43.33957436 52.93957031 44.58813477 53.125 C45.51662735 53.27195313 46.44511993 53.41890625 47.40174866 53.5703125 C48.40483566 53.71210938 49.40792267 53.85390625 50.44140625 54 C51.47885483 54.16242188 52.51630341 54.32484375 53.58518982 54.4921875 C56.90869825 55.01105451 60.23500013 55.507429 63.5625 56 C66.86465473 56.49432153 70.1656692 56.99386077 73.46482849 57.5078125 C75.51661568 57.82697786 77.5701849 58.13496615 79.62562561 58.4296875 C90.65109964 60.13418987 99.46786682 63.54677756 107 72 C111.90320115 79.12660978 113.05153907 84.51108648 113 93 C101.73411678 93.27904749 90.46906601 93.49175918 79.20042038 93.62174606 C73.96667477 93.68416228 68.73530683 93.76869104 63.50292969 93.90527344 C58.44523333 94.03645741 53.38981081 94.1075701 48.33054352 94.13852692 C46.40866564 94.16056138 44.48690101 94.20359405 42.56600189 94.26876068 C25.96020072 94.80928412 25.96020072 94.80928412 19.50903702 88.8310585 C17.15135478 86.33713516 15.07613993 83.7358016 13 81 C11.75736277 79.58234702 10.50738982 78.17098906 9.2421875 76.7734375 C8.70948242 76.14920898 8.17677734 75.52498047 7.62792969 74.88183594 C4.57727666 71.3553762 1.33455193 68.00622294 -1.875 64.625 C-3.28562759 63.12674571 -4.69578683 61.62805033 -6.10546875 60.12890625 C-8.34540697 57.74907278 -10.59427168 55.3794368 -12.86328125 53.02734375 C-17.80698891 47.78452101 -21.2158518 42.65288425 -24 36 C-24.36480469 35.24976563 -24.72960938 34.49953125 -25.10546875 33.7265625 C-27.38255165 26.78593429 -27.47024375 16.03137123 -24.4375 9.25 C-21.78944675 5.05646371 -17.82335346 1.91019814 -13.09765625 0.38671875 C-8.72375853 -0.41964228 -4.42395735 -0.24769553 0 0 Z " fill="#95D5A4" transform="translate(67,189)"/>
<path d="M0 0 C5.56319953 4.76845674 8.32718237 10.45338391 9.38671875 17.61328125 C10.21263291 31.17662712 3.72976796 43.99581336 -5 54 C-7.15719501 56.27621267 -9.34775474 58.48493311 -11.62890625 60.63671875 C-14.25513932 63.25429867 -16.65280642 66.01597016 -19.07983398 68.81713867 C-22.37876437 72.56739125 -25.81758176 76.18476692 -29.25 79.8125 C-29.95640625 80.56208984 -30.6628125 81.31167969 -31.390625 82.08398438 C-35.12638475 86.04261616 -35.12638475 86.04261616 -37 88 C-37.5345858 88.78685181 -37.5345858 88.78685181 -38.07997131 89.58959961 C-41.19910603 91.88083039 -44.69602698 91.39001978 -48.41870117 91.34057617 C-49.27745346 91.34101425 -50.13620575 91.34145233 -51.02098083 91.34190369 C-53.86187407 91.33981223 -56.7021785 91.31646443 -59.54296875 91.29296875 C-61.51165952 91.28737406 -63.48035447 91.28310337 -65.4490509 91.28010559 C-70.63263464 91.2686468 -75.81596651 91.23917066 -80.99945068 91.20599365 C-86.28801059 91.17531508 -91.57661115 91.16160499 -96.86523438 91.14648438 C-107.24360029 91.11430201 -117.62177921 91.06309311 -128 91 C-128.09989198 80.67892385 -125.57094944 73.54376004 -118.22265625 65.96875 C-107.86462187 56.79397086 -92.40988663 55.95208181 -79.20553589 54.2258606 C-76.49314158 53.86661955 -73.78520492 53.4782258 -71.07702637 53.08862305 C-69.09853256 52.81743884 -67.11408358 52.59090211 -65.12988281 52.36523438 C-58.56225996 51.54242666 -58.56225996 51.54242666 -53.02978516 48.23974609 C-51.42651907 45.90461141 -50.21680965 43.55725489 -49 41 C-47.90866208 39.0789841 -46.80927594 37.16252468 -45.703125 35.25 C-44.54963444 33.16802156 -43.39867284 31.08464035 -42.25 29 C-41.01502698 26.789971 -39.77934632 24.58033729 -38.54296875 22.37109375 C-36.37232342 18.48160898 -34.22900013 14.579733 -32.11328125 10.66015625 C-31.26379177 9.12717671 -30.41358769 7.59459282 -29.5625 6.0625 C-29.19866211 5.36576172 -28.83482422 4.66902344 -28.45996094 3.95117188 C-26.49782218 0.47356009 -25.26445475 -0.89184098 -21.5234375 -2.421875 C-14.08129617 -3.64298023 -6.66867426 -4.04422826 0 0 Z " fill="#A09EEE" transform="translate(460,191)"/>
<path d="M0 0 C4.38754438 2.15388542 7.52067915 4.77597188 10 9 C11.60838709 15.00810404 11.45399341 19.87974476 8.32421875 25.3046875 C6.2339926 27.98067025 3.96932715 29.38036701 1 31 C1.24121582 32.06299316 1.24121582 32.06299316 1.48730469 33.14746094 C2.38613989 38.14840878 2.2264522 43.18133647 2.25 48.25 C2.270625 49.34441406 2.29125 50.43882812 2.3125 51.56640625 C2.3451689 58.38603812 1.54071859 63.66157572 -1 70 C-11.34182232 70 -19.15420659 61.14967779 -26.125 54.37109375 C-28 52 -28 52 -29.05078125 48.5625 C-30.88465415 43.94305239 -34.74456688 42.7223487 -39.08398438 40.83007812 C-40.10814453 40.41177734 -41.13230469 39.99347656 -42.1875 39.5625 C-43.22326172 39.11712891 -44.25902344 38.67175781 -45.32617188 38.21289062 C-47.87581499 37.12018643 -50.43274202 36.05048751 -53 35 C-51.07665724 26.8558455 -46.77242386 21.0000285 -39.5703125 16.47265625 C-33.44658879 13.7238282 -27.62616648 13.54649811 -21 14 C-20.9071875 12.700625 -20.9071875 12.700625 -20.8125 11.375 C-19.68959853 6.71064004 -17.27137971 3.42384997 -13.16796875 0.8515625 C-8.92669013 -0.81438118 -4.46793891 -0.52525842 0 0 Z " fill="#714B4A" transform="translate(488,93)"/>
<path d="M0 0 C5.28 0 10.56 0 16 0 C15.40990951 6.94361086 14.3934152 13.59814487 12.91455078 20.40332031 C12.70464508 21.39000702 12.49473938 22.37669373 12.2784729 23.39328003 C11.58973793 26.62280114 10.89293336 29.85051262 10.1953125 33.078125 C9.71043722 35.33627126 9.22581189 37.59447119 8.74142456 39.85272217 C7.7280133 44.57060012 6.71037077 49.28754148 5.68994141 54.00390625 C4.38381614 60.04323216 3.09018086 66.08515679 1.79991341 72.12788773 C0.80359136 76.78569011 -0.20026433 81.44184459 -1.20630264 86.09755707 C-1.68647035 88.32491273 -2.16408093 90.55282127 -2.63906479 92.78128815 C-3.30350927 95.8940206 -3.97830444 99.00433536 -4.65576172 102.11425781 C-4.94580078 103.48899765 -4.94580078 103.48899765 -5.24169922 104.89151001 C-7.73487417 116.2035209 -7.73487417 116.2035209 -11.8125 119.4375 C-14.90633896 120.23305859 -16.94094704 119.89222378 -20 119 C-22.375 117.375 -22.375 117.375 -24 115 C-24.4464512 109.04311368 -23.27086357 103.60861608 -22.01220703 97.82958984 C-21.80084106 96.83198135 -21.5894751 95.83437286 -21.3717041 94.80653381 C-20.67409126 91.52312734 -19.96620147 88.24203448 -19.2578125 84.9609375 C-18.76886204 82.67374088 -18.2804152 80.38643655 -17.79244995 78.09902954 C-16.76959665 73.31179123 -15.74186596 68.52563481 -14.71044922 63.74023438 C-13.38883867 57.60737087 -12.07751702 51.47236426 -10.76959419 45.33656883 C-9.76245876 40.61581941 -8.75083782 35.89604038 -7.73775864 31.17656326 C-7.2525808 28.9145865 -6.76857749 26.65235748 -6.28577042 24.3898735 C-5.61045228 21.22948782 -4.92933793 18.07040711 -4.24658203 14.91162109 C-4.04805634 13.97746872 -3.84953064 13.04331635 -3.64498901 12.08085632 C-3.4571283 11.21744125 -3.26926758 10.35402618 -3.07571411 9.46444702 C-2.91532213 8.7185903 -2.75493015 7.97273357 -2.58967781 7.20427513 C-1.93020476 4.73909835 -0.94773787 2.36934467 0 0 Z " fill="#DAD8DB" transform="translate(410,392)"/>
<path d="M0 0 C5.61 0 11.22 0 17 0 C15.1640506 11.9459108 12.62318448 23.73907542 10.1328125 35.5625 C9.89692287 36.68285645 9.66103325 37.80321289 9.41799545 38.95751953 C8.17207455 44.86974361 6.92207921 50.78109188 5.66943359 56.69189453 C4.63513628 61.57659418 3.60951937 66.46299648 2.59130859 71.35107422 C1.35737501 77.27457883 0.10884366 83.19482486 -1.15036392 89.11300659 C-1.6267238 91.36380836 -2.09793821 93.61570551 -2.56389999 95.86868286 C-3.21459881 99.00937268 -3.88399881 102.14551378 -4.55810547 105.28125 C-4.74629852 106.21114243 -4.93449158 107.14103485 -5.12838745 108.09910583 C-6.15847618 112.78979502 -6.89751911 116.06869662 -11 119 C-14.68451718 120.17590974 -16.28254275 120.33481338 -19.8125 118.6875 C-22 117 -22 117 -23 115 C-23.32085819 108.20921879 -22.4547858 102.1866978 -20.99633789 95.57080078 C-20.78336563 94.56968765 -20.57039337 93.56857452 -20.35096741 92.53712463 C-19.65032712 89.25456448 -18.93667031 85.9749872 -18.22265625 82.6953125 C-17.73105165 80.40623904 -17.24021333 78.11700088 -16.75010681 75.8276062 C-15.46162948 69.81993645 -14.16183522 63.81476823 -12.85992432 57.80999756 C-11.79685482 52.89742039 -10.74195708 47.98310557 -9.68746281 43.06868172 C-8.43113403 37.21446113 -7.17115264 31.36102925 -5.91015625 25.5078125 C-5.66921801 24.38893772 -5.42827976 23.27006294 -5.18004036 22.11728287 C-4.49967723 18.962037 -3.81683495 15.80733933 -3.13305664 12.65283203 C-2.93093567 11.7146312 -2.7288147 10.77643036 -2.52056885 9.80979919 C-2.33408279 8.95202377 -2.14759674 8.09424835 -1.95545959 7.21047974 C-1.79414582 6.46537706 -1.63283205 5.72027439 -1.46662998 4.95259285 C-1 3 -1 3 0 0 Z " fill="#DAD8DA" transform="translate(23,392)"/>
<path d="M0 0 C5.28 0 10.56 0 16 0 C17.34724032 3.3681008 18.33533391 6.02152205 19.07571411 9.46444702 C19.26357483 10.32786209 19.45143555 11.19127716 19.64498901 12.08085632 C19.84351471 13.0150087 20.04204041 13.94916107 20.24658203 14.91162109 C20.46145264 15.90572495 20.67632324 16.8998288 20.89770508 17.92405701 C21.60571159 21.20620565 22.30707925 24.4897289 23.0078125 27.7734375 C23.49801642 30.05884664 23.98840603 32.34421596 24.47897339 34.62954712 C25.50581828 39.41872123 26.52915936 44.20862848 27.55029297 48.99902344 C28.85829119 55.13293335 30.17684823 61.26451888 31.49829292 67.39554405 C32.51383808 72.11456308 33.52279282 76.83497313 34.52987289 81.55580521 C35.01323733 83.81687171 35.49886864 86.07745485 35.98682022 88.33753586 C36.66879153 91.50013874 37.34162284 94.66455579 38.01220703 97.82958984 C38.31606827 99.22474571 38.31606827 99.22474571 38.62606812 100.64808655 C39.64333398 105.49966436 40.37384521 110.01187721 40 115 C37.94502229 118.00342896 36.52366286 118.83287356 33.0625 119.9375 C29.18480883 120.01663655 27.86811523 119.63556535 25 117 C22.29323404 110.8666171 21.01881579 104.13115917 19.63989258 97.60253906 C19.42487595 96.60463852 19.20985931 95.60673798 18.98832703 94.57859802 C18.28523925 91.30868807 17.58962586 88.03724263 16.89453125 84.765625 C16.40587601 82.4811161 15.91691352 80.19667291 15.42765808 77.91229248 C14.40651245 73.13868764 13.38907379 68.36431188 12.37426758 63.58935547 C11.07322151 57.46902343 9.76293593 51.35071291 8.44989491 45.23294449 C7.43992262 40.52231952 6.4348173 35.81066641 5.43118858 31.09868622 C4.94985326 28.8417132 4.46700413 26.58506247 3.98261452 24.32874298 C3.30743523 21.18015209 2.63881582 18.03023789 1.97192383 14.87988281 C1.77092072 13.94887253 1.5699176 13.01786224 1.36282349 12.05863953 C1.18204758 11.19811478 1.00127167 10.33759003 0.8150177 9.45098877 C0.57750904 8.33610014 0.57750904 8.33610014 0.33520222 7.19868851 C0 5 0 5 0 0 Z " fill="#DAD8DA" transform="translate(86,392)"/>
<path d="M0 0 C5.61 0 11.22 0 17 0 C19.70792289 11.99099399 22.36126794 23.99361495 25 36 C25.29757017 37.35221726 25.59515806 38.70443063 25.89276123 40.05664062 C27.75537574 48.52367431 29.60770759 56.99286939 31.44482136 65.46547508 C32.30606883 69.43674579 33.17081414 73.40717733 34.04421997 77.37579346 C34.88266068 81.18656499 35.71085469 84.99943137 36.53186226 88.81399536 C36.83953984 90.23531511 37.15072999 91.65587986 37.46574211 93.07559204 C41.2201292 110.02149777 41.2201292 110.02149777 40 116 C37.92497669 118.71906447 37.0329927 118.99220173 33.5625 119.8125 C28.33797217 120.08747515 28.33797217 120.08747515 26 118 C23.41193106 111.90369538 21.91390088 105.7827713 20.5480957 99.31713867 C20.3233255 98.27715729 20.0985553 97.2371759 19.86697388 96.16567993 C19.13060115 92.75102994 18.40301535 89.33457568 17.67578125 85.91796875 C17.16484935 83.5375273 16.65346466 81.15718299 16.14164734 78.77693176 C15.07297692 73.80074089 14.00841434 68.82369537 12.94702148 63.84594727 C11.58471276 57.45762538 10.21427178 51.07108272 8.84104633 44.6850996 C7.78598686 39.7761337 6.73413297 34.8664856 5.68337059 29.95659828 C5.17893952 27.60044756 4.67375464 25.24445809 4.16781044 22.88863182 C3.46334096 19.60503819 2.76293043 16.32060576 2.0637207 13.03588867 C1.85336685 12.05871384 1.643013 11.081539 1.42628479 10.07475281 C1.14249969 8.73543701 1.14249969 8.73543701 0.85298157 7.36906433 C0.68726811 6.59316546 0.52155466 5.8172666 0.35081959 5.01785564 C0 3 0 3 0 0 Z " fill="#DAD8DA" transform="translate(472,392)"/>
<path d="M0 0 C41.58 0 83.16 0 126 0 C126 22 126 22 123 27 C120 29 120 29 113 29 C113 23.72 113 18.44 113 13 C75.71 13 38.42 13 0 13 C0 8.71 0 4.42 0 0 Z " fill="#FB8B59" transform="translate(0,363)"/>
<path d="M0 0 C0.04637034 2.64310937 0.09257868 5.28621907 0.13760376 7.92935181 C0.17439451 9.96305894 0.21991467 11.99661265 0.27026367 14.0300293 C0.34799574 23.16814473 0.34799574 23.16814473 -3 27 C-6 29 -6 29 -13 29 C-13 23.72 -13 18.44 -13 13 C-49.63 13 -86.26 13 -124 13 C-124.33 13.99 -124.66 14.98 -125 16 C-124.85737588 14.4372038 -124.71074489 12.87477304 -124.5625 11.3125 C-124.48128906 10.44238281 -124.40007812 9.57226562 -124.31640625 8.67578125 C-124.00902326 6.0763078 -123.52749691 3.56239604 -123 1 C-113.01666768 0.86641283 -103.03329954 0.73591049 -93.04988194 0.60884857 C-88.40896759 0.54969593 -83.76806893 0.48966429 -79.12719727 0.42724609 C-52.75001509 0.07335441 -26.37951755 -0.06812655 0 0 Z " fill="#FE8B59" transform="translate(512,363)"/>
<path d="M0 0 C5.26919571 3.37968745 8.30805 7.400744 11 13 C11 13.66 11 14.32 11 15 C7.3357646 16.57114634 3.66956379 18.13760116 0.00146484 19.69970703 C-1.24648273 20.23194385 -2.4938826 20.76546678 -3.74072266 21.30029297 C-5.53143628 22.06814869 -7.32428343 22.83102285 -9.1171875 23.59375 C-10.19597168 24.05458984 -11.27475586 24.51542969 -12.38623047 24.99023438 C-15 26 -15 26 -17 26 C-17.23783203 27.01707031 -17.23783203 27.01707031 -17.48046875 28.0546875 C-19.88536669 37.64770578 -22.48254656 46.21428658 -30.99609375 51.94921875 C-33.62862805 53.32963147 -36.04180659 53.85209033 -39 54 C-43.34412988 46.48861127 -43.63952139 39.60281324 -43.5625 31.0625 C-43.58634766 29.85142578 -43.61019531 28.64035156 -43.63476562 27.39257812 C-43.61878306 17.55264758 -41.26595873 10.6154229 -34.875 3.125 C-24.72494374 -6.20863869 -11.70111417 -5.71779104 0 0 Z " fill="#714B4A" transform="translate(59,111)"/>
<path d="M0 0 C0.87052002 -0.00861557 1.74104004 -0.01723114 2.63793945 -0.02610779 C5.5089307 -0.04876852 8.37894601 -0.04202919 11.25 -0.03295898 C13.24870087 -0.03819425 15.24739926 -0.04447037 17.24609375 -0.05174255 C21.43241004 -0.06214675 25.61838642 -0.05758452 29.8046875 -0.04296875 C35.1684468 -0.02577461 40.53113553 -0.04928409 45.89477539 -0.08445835 C50.02123101 -0.10642114 54.14742998 -0.10499367 58.27392578 -0.09669304 C60.25147679 -0.09587303 62.22904656 -0.10274587 64.20654297 -0.11746407 C66.97169792 -0.13489079 69.73492263 -0.12038401 72.5 -0.09765625 C73.31573486 -0.10934845 74.13146973 -0.12104065 74.97192383 -0.13308716 C79.21026552 -0.06223196 80.80056107 0.18201074 84.2578125 2.88539124 C86.25 5.53344727 86.25 5.53344727 86.875 8.53344727 C86.01664595 12.65354671 84.55389933 13.94997968 81.25 16.53344727 C78.32874914 17.24874938 75.49610618 17.20749497 72.5 17.16455078 C71.62947998 17.17170609 70.75895996 17.17886139 69.86206055 17.18623352 C66.99083628 17.20311192 64.12117529 17.18372322 61.25 17.16235352 C59.25130077 17.16318229 57.25260161 17.16564201 55.25390625 17.16966248 C51.06749933 17.17251989 46.8816276 17.15782457 42.6953125 17.13037109 C37.33164616 17.09628862 31.96893676 17.10230717 26.60522461 17.12103367 C22.47876016 17.13160699 18.35251801 17.12266277 14.22607422 17.10764885 C12.24854187 17.10246903 10.27098629 17.10294641 8.29345703 17.1091938 C5.52846433 17.11464997 2.76483708 17.09425823 0 17.06689453 C-1.22360229 17.07668335 -1.22360229 17.07668335 -2.47192383 17.08666992 C-6.42963065 17.02013769 -8.32796706 16.80142832 -11.75537109 14.62510681 C-13.89566536 12.38069588 -14.43452071 11.58090779 -14.375 8.53344727 C-14.38789063 7.87344727 -14.40078125 7.21344727 -14.4140625 6.53344727 C-12.19939867 -0.13659908 -5.86998505 -0.04695988 0 0 Z " fill="#E2A978" transform="translate(152.75,24.466552734375)"/>
<path d="M0 0 C2.40196265 12.04824464 2.89454624 26.9515081 -3.625 37.6875 C-8.32851446 44.20181059 -13.6922264 48.43057146 -21.71875 49.75 C-22.4715625 49.8325 -23.224375 49.915 -24 50 C-24.7321875 50.0825 -25.464375 50.165 -26.21875 50.25 C-33.7519898 50.67440788 -40.66020213 48.09720884 -46.5625 43.4375 C-49 41 -49 41 -50 38 C-49.34773438 37.74347656 -48.69546875 37.48695313 -48.0234375 37.22265625 C-41.05142945 34.16854653 -37.26958713 30.90016969 -34 24 C-32.86786827 20.88953568 -31.85819042 17.78648121 -30.95703125 14.6015625 C-29.62244822 10.97367558 -28.01316442 9.54060291 -24.61157227 7.72558594 C-21.60018617 6.38836112 -18.58614285 5.05932057 -15.5625 3.75 C-14.51255859 3.27820313 -13.46261719 2.80640625 -12.38085938 2.3203125 C-10.86395508 1.65902344 -10.86395508 1.65902344 -9.31640625 0.984375 C-8.39287354 0.57928711 -7.46934082 0.17419922 -6.51782227 -0.24316406 C-3.8285021 -1.05155081 -2.59283029 -0.97017629 0 0 Z " fill="#F6D3AC" transform="translate(71,127)"/>
<path d="M0 0 C0.88012756 -0.00861557 1.76025513 -0.01723114 2.66705322 -0.02610779 C5.57594222 -0.04880739 8.48387089 -0.04202132 11.39282227 -0.03295898 C13.41537259 -0.03819304 15.43792046 -0.04446871 17.46046448 -0.05174255 C21.69983402 -0.06215432 25.93886807 -0.05757442 30.17822266 -0.04296875 C35.61038729 -0.02578543 41.04149378 -0.0492668 46.47354031 -0.08445835 C50.6506094 -0.10642243 54.82742497 -0.10499315 59.00453377 -0.09669304 C61.00720441 -0.09587287 63.00989355 -0.10274876 65.0125103 -0.11746407 C67.81368842 -0.13489029 70.61296096 -0.12038353 73.4140625 -0.09765625 C74.24071915 -0.10934845 75.06737579 -0.12104065 75.91908264 -0.13308716 C80.18238057 -0.06273118 81.80882707 0.1733582 85.29017639 2.88148499 C87.27172852 5.53344727 87.27172852 5.53344727 87.83422852 8.59594727 C87.11937437 12.32907449 86.33185915 13.2858392 83.27172852 15.53344727 C80.20628272 15.92795797 77.50078576 16.08058345 74.43579102 16.05102539 C73.09855988 16.06153931 73.09855988 16.06153931 71.73431396 16.07226562 C68.78813508 16.0898676 65.84291713 16.07821502 62.89672852 16.06469727 C60.84936336 16.06739154 58.80199945 16.07127343 56.75463867 16.07629395 C52.46398739 16.08219198 48.17366921 16.07361606 43.88305664 16.05493164 C38.38141364 16.03214208 32.88055113 16.04526351 27.37893677 16.0692215 C23.15130729 16.08367111 18.92386306 16.07907729 14.69622803 16.06871033 C12.66762195 16.06604073 10.63899908 16.06932095 8.6104126 16.07862854 C5.77571014 16.08878023 2.94227407 16.07331236 0.10766602 16.05102539 C-0.73193665 16.05912231 -1.57153931 16.06721924 -2.43658447 16.07556152 C-6.05186296 16.02286479 -8.27363979 15.86050823 -11.24926758 13.71984863 C-13.42415309 10.50473025 -13.2694808 8.32191247 -12.72827148 4.53344727 C-9.43598375 -0.3092781 -5.39127102 -0.04245637 0 0 Z " fill="#E2A876" transform="translate(276.728271484375,78.466552734375)"/>
<path d="M0 0 C19.78239609 5.79828851 19.78239609 5.79828851 24.46875 11.91796875 C25.03335127 13.22753002 25.55951952 14.55430368 26.046875 15.89453125 C30.34333775 25.38548791 42.01714955 31.66561761 51 36 C50.01806547 37.26424071 49.01318236 38.51066086 48 39.75 C47.443125 40.44609375 46.88625 41.1421875 46.3125 41.859375 C40.60162498 47.14579309 34.70919462 48.71168391 27.0625 48.5625 C26.27198242 48.55226807 25.48146484 48.54203613 24.66699219 48.53149414 C16.48817003 48.23360679 11.35233995 45.68611783 5.6875 39.8125 C-0.48571623 31.6494838 -1.58854409 23.51119913 -1.3125 13.5 C-1.30283203 12.4171875 -1.29316406 11.334375 -1.28320312 10.21875 C-1.1699445 2.339889 -1.1699445 2.339889 0 0 Z " fill="#F6D3AC" transform="translate(435,128)"/>
<path d="M0 0 C0.72392441 -0.0065712 1.44784882 -0.0131424 2.19371033 -0.01991272 C4.58828843 -0.03961636 6.98280397 -0.05130061 9.37744141 -0.0612793 C10.60511671 -0.06739259 10.60511671 -0.06739259 11.85759354 -0.07362938 C16.18810015 -0.0944758 20.51857518 -0.1087847 24.84912109 -0.11816406 C29.32044694 -0.12923648 33.79127622 -0.16364967 38.26242638 -0.20333576 C41.70255457 -0.22948161 45.14256393 -0.23785398 48.58278275 -0.24144554 C50.23100775 -0.24631537 51.87922731 -0.2579407 53.52735519 -0.27648354 C55.83504395 -0.30083693 58.14144079 -0.29991782 60.44921875 -0.29296875 C61.76143402 -0.29883499 63.07364929 -0.30470123 64.42562866 -0.31074524 C68.43290781 0.2593613 70.06875642 1.28336454 72.85400391 4.17700195 C73.91650391 7.61450195 73.91650391 7.61450195 73.85400391 11.17700195 C71.76775051 14.60441824 70.6795728 15.90181232 66.85400391 17.17700195 C64.50434519 17.28221362 62.15178498 17.32571321 59.79980469 17.33813477 C59.08563385 17.34309967 58.37146301 17.34806458 57.63565063 17.35317993 C55.27352942 17.36778244 52.91147534 17.37460015 50.54931641 17.38012695 C48.90648395 17.38587975 47.26365151 17.39163747 45.62081909 17.3973999 C42.17592049 17.40790428 38.73104518 17.41375071 35.28613281 17.41723633 C30.87543007 17.42272152 26.46503595 17.44675229 22.05443001 17.47520828 C18.66062524 17.49384609 15.26689468 17.49904085 11.87304306 17.5005722 C10.24716376 17.50359642 8.6212857 17.51161718 6.9954567 17.52475739 C4.71906391 17.54184306 2.44342337 17.53993191 0.16699219 17.53344727 C-1.12745819 17.5370929 -2.42190857 17.54073853 -3.75558472 17.54449463 C-7.38128451 17.15149863 -9.26512631 16.37000567 -12.14599609 14.17700195 C-13.67446271 11.12006873 -13.37842054 8.54715648 -13.14599609 5.17700195 C-10.06560315 -0.39704242 -5.8939548 0.04426999 0 0 Z " fill="#C7C5C9" transform="translate(224.14599609375,494.822998046875)"/>
<path d="M0 0 C1.184729 -0.01260864 2.36945801 -0.02521729 3.59008789 -0.03820801 C4.86102295 -0.03011108 6.13195801 -0.02201416 7.44140625 -0.01367188 C8.75423584 -0.01749878 10.06706543 -0.02132568 11.41967773 -0.02526855 C14.1937144 -0.03115354 16.96723451 -0.02263407 19.74121094 -0.00390625 C23.28896706 0.01888404 26.83551273 0.00575539 30.38322449 -0.01819611 C33.77771429 -0.03616323 37.1718821 -0.02356693 40.56640625 -0.01367188 C42.47280884 -0.02581726 42.47280884 -0.02581726 44.41772461 -0.03820801 C46.19481812 -0.01929504 46.19481812 -0.01929504 48.0078125 0 C49.56737671 0.00477356 49.56737671 0.00477356 51.15844727 0.00964355 C54.72786431 0.64680976 56.42449187 2.01868854 59.00390625 4.51757812 C59.8630808 7.46251195 59.40246835 9.37890162 59.00390625 12.51757812 C57.19227358 15.19189302 56.12629548 15.47678171 53.00390625 16.51757812 C51.11367539 16.62594926 49.21990796 16.67642168 47.32666016 16.69458008 C45.57937119 16.71383293 45.57937119 16.71383293 43.79678345 16.73347473 C42.5373996 16.74086166 41.27801575 16.7482486 39.98046875 16.75585938 C38.68700531 16.76393112 37.39354187 16.77200287 36.06088257 16.78031921 C33.32216524 16.79533025 30.58347371 16.80517638 27.84472656 16.81274414 C24.341885 16.82381205 20.83967809 16.85822248 17.33706093 16.89791584 C13.98905568 16.93038805 10.64111932 16.93486061 7.29296875 16.94335938 C6.03763336 16.96086746 4.78229797 16.97837555 3.48892212 16.99641418 C2.31775848 16.99348862 1.14659485 16.99056305 -0.06005859 16.98754883 C-1.08803558 16.99341507 -2.11601257 16.99928131 -3.17514038 17.00532532 C-6.73839409 16.38923325 -8.42064336 15.0041843 -10.99609375 12.51757812 C-11.66015625 10.51757812 -11.66015625 10.51757812 -11.62109375 8.51757812 C-11.63398438 7.85757813 -11.646875 7.19757813 -11.66015625 6.51757812 C-9.88213092 1.16258419 -5.0864143 0.01556865 0 0 Z " fill="#E2A876" transform="translate(274.99609375,111.482421875)"/>
<path d="M0 0 C1.83726906 -0.0237545 1.83726906 -0.0237545 3.71165466 -0.04798889 C5.03149857 -0.04302902 6.35134247 -0.03806915 7.71118164 -0.03295898 C9.08354616 -0.03819604 10.45590707 -0.04447283 11.82826233 -0.05174255 C14.70241246 -0.06214294 17.5760674 -0.05759187 20.45019531 -0.04296875 C24.12705676 -0.02578953 27.80235421 -0.04926407 31.4790411 -0.08445835 C34.31277247 -0.10645912 37.1461312 -0.10498455 39.97992134 -0.09669304 C41.99234725 -0.0954779 44.00475014 -0.11538995 46.01707458 -0.13563538 C56.16843192 -0.03202928 56.16843192 -0.03202928 59.29931641 2.84619141 C60.93383789 5.53344727 60.93383789 5.53344727 60.99633789 9.15844727 C59.8095805 12.92814721 59.27688811 13.63441783 55.93383789 15.53344727 C53.12597656 15.92112732 53.12597656 15.92112732 49.85180664 15.9375 C48.62373291 15.95018417 47.39565918 15.96286835 46.13037109 15.97593689 C44.79402498 15.97388552 43.45768002 15.97089755 42.12133789 15.96704102 C40.74657941 15.97160357 39.3718232 15.97690937 37.99707031 15.98292542 C35.11880209 15.99185162 32.24081142 15.98943878 29.36254883 15.97949219 C25.67683939 15.96799533 21.99208701 15.98822583 18.3065033 16.01740932 C15.46856621 16.03576731 12.63085876 16.03547993 9.7928772 16.0297718 C8.43411922 16.02961858 7.0753457 16.03566425 5.71664429 16.04806328 C3.81643945 16.06296287 1.91607695 16.04967147 0.01586914 16.03515625 C-1.60484497 16.034907 -1.60484497 16.034907 -3.25830078 16.03465271 C-6.76218424 15.40920677 -7.94248215 14.34687967 -10.06616211 11.53344727 C-10.56616211 8.03344727 -10.56616211 8.03344727 -10.06616211 4.53344727 C-7.05818936 0.55451547 -4.8895617 0.02812943 0 0 Z " fill="#E2A876" transform="translate(149.066162109375,58.466552734375)"/>
<path d="M0 0 C4.38754438 2.15388542 7.52067915 4.77597188 10 9 C11.5941117 14.95477856 11.49053041 19.91259851 8.390625 25.3046875 C6.03017372 28.18231631 3.35616027 29.45100295 0 31 C-0.44730469 30.39671875 -0.89460938 29.7934375 -1.35546875 29.171875 C-7.11123803 21.56296892 -12.20418859 17.60264171 -21 14 C-20.61104749 8.55466487 -18.7851047 5.87313039 -15 2 C-10.34234393 -0.9197247 -5.3157091 -0.62492371 0 0 Z " fill="#623B3D" transform="translate(488,93)"/>
</svg>
